  0
SECTION
  2
HEADER
  9
$ACADVER
  1
AC1024
  9
$ACADMAINTVER
 70
6
  9
$DWGCODEPAGE
  3
ANSI_1252
  9
$LASTSAVEDBY
  1
ezdxf
  9
$INSBASE
 10
0.0
 20
0.0
 30
0.0
  9
$EXTMIN
 10
1e+20
 20
1e+20
 30
1e+20
  9
$EXTMAX
 10
-1e+20
 20
-1e+20
 30
-1e+20
  9
$LIMMIN
 10
0.0
 20
0.0
  9
$LIMMAX
 10
420.0
 20
297.0
  9
$ORTHOMODE
 70
0
  9
$REGENMODE
 70
1
  9
$FILLMODE
 70
1
  9
$QTEXTMODE
 70
0
  9
$MIRRTEXT
 70
1
  9
$LTSCALE
 40
1.0
  9
$ATTMODE
 70
1
  9
$TEXTSIZE
 40
2.5
  9
$TRACEWID
 40
1.0
  9
$TEXTSTYLE
  7
Standard
  9
$CLAYER
  8
0
  9
$CELTYPE
  6
ByLayer
  9
$CECOLOR
 62
256
  9
$CELTSCALE
 40
1.0
  9
$DISPSILH
 70
0
  9
$DIMSCALE
 40
1.0
  9
$DIMASZ
 40
2.5
  9
$DIMEXO
 40
0.625
  9
$DIMDLI
 40
3.75
  9
$DIMRND
 40
0.0
  9
$DIMDLE
 40
0.0
  9
$DIMEXE
 40
1.25
  9
$DIMTP
 40
0.0
  9
$DIMTM
 40
0.0
  9
$DIMTXT
 40
2.5
  9
$DIMCEN
 40
2.5
  9
$DIMTSZ
 40
0.0
  9
$DIMTOL
 70
0
  9
$DIMLIM
 70
0
  9
$DIMTIH
 70
0
  9
$DIMTOH
 70
0
  9
$DIMSE1
 70
0
  9
$DIMSE2
 70
0
  9
$DIMTAD
 70
1
  9
$DIMZIN
 70
8
  9
$DIMBLK
  1

  9
$DIMASO
 70
1
  9
$DIMSHO
 70
1
  9
$DIMPOST
  1

  9
$DIMAPOST
  1

  9
$DIMALT
 70
0
  9
$DIMALTD
 70
3
  9
$DIMALTF
 40
0.03937007874
  9
$DIMLFAC
 40
1.0
  9
$DIMTOFL
 70
1
  9
$DIMTVP
 40
0.0
  9
$DIMTIX
 70
0
  9
$DIMSOXD
 70
0
  9
$DIMSAH
 70
0
  9
$DIMBLK1
  1

  9
$DIMBLK2
  1

  9
$DIMSTYLE
  2
ISO-25
  9
$DIMCLRD
 70
0
  9
$DIMCLRE
 70
0
  9
$DIMCLRT
 70
0
  9
$DIMTFAC
 40
1.0
  9
$DIMGAP
 40
0.625
  9
$DIMJUST
 70
0
  9
$DIMSD1
 70
0
  9
$DIMSD2
 70
0
  9
$DIMTOLJ
 70
0
  9
$DIMTZIN
 70
8
  9
$DIMALTZ
 70
0
  9
$DIMALTTZ
 70
0
  9
$DIMUPT
 70
0
  9
$DIMDEC
 70
2
  9
$DIMTDEC
 70
2
  9
$DIMALTU
 70
2
  9
$DIMALTTD
 70
3
  9
$DIMTXSTY
  7
Standard
  9
$DIMAUNIT
 70
0
  9
$DIMADEC
 70
0
  9
$DIMALTRND
 40
0.0
  9
$DIMAZIN
 70
0
  9
$DIMDSEP
 70
44
  9
$DIMATFIT
 70
3
  9
$DIMFRAC
 70
0
  9
$DIMLDRBLK
  1

  9
$DIMLUNIT
 70
2
  9
$DIMLWD
 70
-2
  9
$DIMLWE
 70
-2
  9
$DIMTMOVE
 70
0
  9
$DIMFXL
 40
1.0
  9
$DIMFXLON
 70
0
  9
$DIMJOGANG
 40
0.785398163397
  9
$DIMTFILL
 70
0
  9
$DIMTFILLCLR
 70
0
  9
$DIMARCSYM
 70
0
  9
$DIMLTYPE
  6

  9
$DIMLTEX1
  6

  9
$DIMLTEX2
  6

  9
$DIMTXTDIRECTION
 70
0
  9
$LUNITS
 70
2
  9
$LUPREC
 70
4
  9
$SKETCHINC
 40
1.0
  9
$FILLETRAD
 40
10.0
  9
$AUNITS
 70
0
  9
$AUPREC
 70
2
  9
$MENU
  1
.
  9
$ELEVATION
 40
0.0
  9
$PELEVATION
 40
0.0
  9
$THICKNESS
 40
0.0
  9
$LIMCHECK
 70
0
  9
$CHAMFERA
 40
0.0
  9
$CHAMFERB
 40
0.0
  9
$CHAMFERC
 40
0.0
  9
$CHAMFERD
 40
0.0
  9
$SKPOLY
 70
0
  9
$TDCREATE
 40
2461124.6366550927
  9
$TDUCREATE
 40
2458532.153996898
  9
$TDUPDATE
 40
2461124.6366550927
  9
$TDUUPDATE
 40
2458532.1544311
  9
$TDINDWG
 40
0.0
  9
$TDUSRTIMER
 40
0.0
  9
$USRTIMER
 70
1
  9
$ANGBASE
 50
0.0
  9
$ANGDIR
 70
0
  9
$PDMODE
 70
0
  9
$PDSIZE
 40
0.0
  9
$PLINEWID
 40
0.0
  9
$SPLFRAME
 70
0
  9
$SPLINETYPE
 70
6
  9
$SPLINESEGS
 70
8
  9
$HANDSEED
  5
D2
  9
$SURFTAB1
 70
6
  9
$SURFTAB2
 70
6
  9
$SURFTYPE
 70
6
  9
$SURFU
 70
6
  9
$SURFV
 70
6
  9
$UCSBASE
  2

  9
$UCSNAME
  2

  9
$UCSORG
 10
0.0
 20
0.0
 30
0.0
  9
$UCSXDIR
 10
1.0
 20
0.0
 30
0.0
  9
$UCSYDIR
 10
0.0
 20
1.0
 30
0.0
  9
$UCSORTHOREF
  2

  9
$UCSORTHOVIEW
 70
0
  9
$UCSORGTOP
 10
0.0
 20
0.0
 30
0.0
  9
$UCSORGBOTTOM
 10
0.0
 20
0.0
 30
0.0
  9
$UCSORGLEFT
 10
0.0
 20
0.0
 30
0.0
  9
$UCSORGRIGHT
 10
0.0
 20
0.0
 30
0.0
  9
$UCSORGFRONT
 10
0.0
 20
0.0
 30
0.0
  9
$UCSORGBACK
 10
0.0
 20
0.0
 30
0.0
  9
$PUCSBASE
  2

  9
$PUCSNAME
  2

  9
$PUCSORG
 10
0.0
 20
0.0
 30
0.0
  9
$PUCSXDIR
 10
1.0
 20
0.0
 30
0.0
  9
$PUCSYDIR
 10
0.0
 20
1.0
 30
0.0
  9
$PUCSORTHOREF
  2

  9
$PUCSORTHOVIEW
 70
0
  9
$PUCSORGTOP
 10
0.0
 20
0.0
 30
0.0
  9
$PUCSORGBOTTOM
 10
0.0
 20
0.0
 30
0.0
  9
$PUCSORGLEFT
 10
0.0
 20
0.0
 30
0.0
  9
$PUCSORGRIGHT
 10
0.0
 20
0.0
 30
0.0
  9
$PUCSORGFRONT
 10
0.0
 20
0.0
 30
0.0
  9
$PUCSORGBACK
 10
0.0
 20
0.0
 30
0.0
  9
$USERI1
 70
0
  9
$USERI2
 70
0
  9
$USERI3
 70
0
  9
$USERI4
 70
0
  9
$USERI5
 70
0
  9
$USERR1
 40
0.0
  9
$USERR2
 40
0.0
  9
$USERR3
 40
0.0
  9
$USERR4
 40
0.0
  9
$USERR5
 40
0.0
  9
$WORLDVIEW
 70
1
  9
$SHADEDGE
 70
3
  9
$SHADEDIF
 70
70
  9
$TILEMODE
 70
1
  9
$MAXACTVP
 70
64
  9
$PINSBASE
 10
0.0
 20
0.0
 30
0.0
  9
$PLIMCHECK
 70
0
  9
$PEXTMIN
 10
1e+20
 20
1e+20
 30
1e+20
  9
$PEXTMAX
 10
-1e+20
 20
-1e+20
 30
-1e+20
  9
$PLIMMIN
 10
0.0
 20
0.0
  9
$PLIMMAX
 10
420.0
 20
297.0
  9
$UNITMODE
 70
0
  9
$VISRETAIN
 70
1
  9
$PLINEGEN
 70
0
  9
$PSLTSCALE
 70
1
  9
$TREEDEPTH
 70
3020
  9
$CMLSTYLE
  2
Standard
  9
$CMLJUST
 70
0
  9
$CMLSCALE
 40
20.0
  9
$PROXYGRAPHICS
 70
1
  9
$MEASUREMENT
 70
1
  9
$CELWEIGHT
370
-1
  9
$ENDCAPS
280
0
  9
$JOINSTYLE
280
0
  9
$LWDISPLAY
290
0
  9
$INSUNITS
 70
6
  9
$HYPERLINKBASE
  1

  9
$STYLESHEET
  1

  9
$XEDIT
290
1
  9
$CEPSNTYPE
380
0
  9
$PSTYLEMODE
290
1
  9
$FINGERPRINTGUID
  2
{AE91C55C-2EE4-460F-A095-463607249BE1}
  9
$VERSIONGUID
  2
{71029F8D-C817-4CC5-9521-9F75EF9191D9}
  9
$EXTNAMES
290
1
  9
$PSVPSCALE
 40
0.0
  9
$OLESTARTUP
290
0
  9
$SORTENTS
280
127
  9
$INDEXCTL
280
0
  9
$HIDETEXT
280
1
  9
$XCLIPFRAME
280
1
  9
$HALOGAP
280
0
  9
$OBSCOLOR
 70
257
  9
$OBSLTYPE
280
0
  9
$INTERSECTIONDISPLAY
280
0
  9
$INTERSECTIONCOLOR
 70
257
  9
$DIMASSOC
280
2
  9
$PROJECTNAME
  1

  9
$CAMERADISPLAY
290
0
  9
$LENSLENGTH
 40
50.0
  9
$CAMERAHEIGHT
 40
0.0
  9
$STEPSPERSEC
 40
24.0
  9
$STEPSIZE
 40
100.0
  9
$3DDWFPREC
 40
2.0
  9
$PSOLWIDTH
 40
0.005
  9
$PSOLHEIGHT
 40
0.08
  9
$LOFTANG1
 40
1.570796326795
  9
$LOFTANG2
 40
1.570796326795
  9
$LOFTMAG1
 40
0.0
  9
$LOFTMAG2
 40
0.0
  9
$LOFTPARAM
 70
7
  9
$LOFTNORMALS
280
1
  9
$LATITUDE
 40
37.795
  9
$LONGITUDE
 40
-122.394
  9
$NORTHDIRECTION
 40
0.0
  9
$TIMEZONE
 70
-8000
  9
$LIGHTGLYPHDISPLAY
280
1
  9
$TILEMODELIGHTSYNCH
280
1
  9
$CMATERIAL
347
20
  9
$SOLIDHIST
280
0
  9
$SHOWHIST
280
1
  9
$DWFFRAME
280
2
  9
$DGNFRAME
280
2
  9
$REALWORLDSCALE
290
1
  9
$INTERFERECOLOR
 62
256
  9
$CSHADOW
280
0
  9
$SHADOWPLANELOCATION
 40
0.0
  0
ENDSEC
  0
SECTION
  2
CLASSES
  0
CLASS
  1
ACDBDICTIONARYWDFLT
  2
AcDbDictionaryWithDefault
  3
ObjectDBX Classes
 90
0
 91
0
280
0
281
0
  0
CLASS
  1
SUN
  2
AcDbSun
  3
SCENEOE
 90
1153
 91
0
280
0
281
0
  0
CLASS
  1
VISUALSTYLE
  2
AcDbVisualStyle
  3
ObjectDBX Classes
 90
4095
 91
0
280
0
281
0
  0
CLASS
  1
MATERIAL
  2
AcDbMaterial
  3
ObjectDBX Classes
 90
1153
 91
0
280
0
281
0
  0
CLASS
  1
SCALE
  2
AcDbScale
  3
ObjectDBX Classes
 90
1153
 91
0
280
0
281
0
  0
CLASS
  1
TABLESTYLE
  2
AcDbTableStyle
  3
ObjectDBX Classes
 90
4095
 91
0
280
0
281
0
  0
CLASS
  1
MLEADERSTYLE
  2
AcDbMLeaderStyle
  3
ACDB_MLEADERSTYLE_CLASS
 90
4095
 91
0
280
0
281
0
  0
CLASS
  1
DICTIONARYVAR
  2
AcDbDictionaryVar
  3
ObjectDBX Classes
 90
0
 91
0
280
0
281
0
  0
CLASS
  1
CELLSTYLEMAP
  2
AcDbCellStyleMap
  3
ObjectDBX Classes
 90
1152
 91
0
280
0
281
0
  0
CLASS
  1
MENTALRAYRENDERSETTINGS
  2
AcDbMentalRayRenderSettings
  3
SCENEOE
 90
1024
 91
0
280
0
281
0
  0
CLASS
  1
ACDBDETAILVIEWSTYLE
  2
AcDbDetailViewStyle
  3
ObjectDBX Classes
 90
1025
 91
0
280
0
281
0
  0
CLASS
  1
ACDBSECTIONVIEWSTYLE
  2
AcDbSectionViewStyle
  3
ObjectDBX Classes
 90
1025
 91
0
280
0
281
0
  0
CLASS
  1
RASTERVARIABLES
  2
AcDbRasterVariables
  3
ISM
 90
0
 91
0
280
0
281
0
  0
CLASS
  1
LAYOUT
  2
AcDbLayout
  3
ObjectDBX Classes
 90
0
 91
0
280
0
281
0
  0
CLASS
  1
ACDBPLACEHOLDER
  2
AcDbPlaceHolder
  3
ObjectDBX Classes
 90
0
 91
0
280
0
281
0
  0
ENDSEC
  0
SECTION
  2
TABLES
  0
TABLE
  2
VPORT
  5
8
330
0
100
AcDbSymbolTable
 70
1
  0
VPORT
  5
23
330
8
100
AcDbSymbolTableRecord
100
AcDbViewportTableRecord
  2
*Active
 70
0
 10
0.0
 20
0.0
 11
1.0
 21
1.0
 12
0.0
 22
0.0
 13
0.0
 23
0.0
 14
0.5
 24
0.5
 15
0.5
 25
0.5
 16
0.0
 26
0.0
 36
1.0
 17
0.0
 27
0.0
 37
0.0
 40
1000.0
 41
1.34
 42
50.0
 43
0.0
 44
0.0
 50
0.0
 51
0.0
 71
0
 72
1000
 73
1
 74
3
 75
0
 76
0
 77
0
 78
0
281
0
 65
0
146
0.0
  0
ENDTAB
  0
TABLE
  2
LTYPE
  5
2
330
0
100
AcDbSymbolTable
 70
3
  0
LTYPE
  5
24
330
2
100
AcDbSymbolTableRecord
100
AcDbLinetypeTableRecord
  2
ByBlock
 70
0
  3

 72
65
 73
0
 40
0.0
  0
LTYPE
  5
25
330
2
100
AcDbSymbolTableRecord
100
AcDbLinetypeTableRecord
  2
ByLayer
 70
0
  3

 72
65
 73
0
 40
0.0
  0
LTYPE
  5
26
330
2
100
AcDbSymbolTableRecord
100
AcDbLinetypeTableRecord
  2
Continuous
 70
0
  3

 72
65
 73
0
 40
0.0
  0
ENDTAB
  0
TABLE
  2
LAYER
  5
1
330
0
100
AcDbSymbolTable
 70
8
  0
LAYER
  5
27
330
1
100
AcDbSymbolTableRecord
100
AcDbLayerTableRecord
  2
0
 70
0
 62
7
  6
Continuous
370
-3
390
13
347
21
  0
LAYER
  5
28
330
1
100
AcDbSymbolTableRecord
100
AcDbLayerTableRecord
  2
Defpoints
 70
0
 62
7
  6
Continuous
290
0
370
-3
390
13
347
21
  0
LAYER
  5
2F
330
1
100
AcDbSymbolTableRecord
100
AcDbLayerTableRecord
  2
PARCEL
 70
0
 62
7
  6
Continuous
370
-3
390
13
347
21
  0
LAYER
  5
30
330
1
100
AcDbSymbolTableRecord
100
AcDbLayerTableRecord
  2
ROAD
 70
0
 62
1
  6
Continuous
370
-3
390
13
347
21
  0
LAYER
  5
31
330
1
100
AcDbSymbolTableRecord
100
AcDbLayerTableRecord
  2
OPT_ROAD
 70
0
 62
6
  6
Continuous
370
-3
390
13
347
21
  0
LAYER
  5
32
330
1
100
AcDbSymbolTableRecord
100
AcDbLayerTableRecord
  2
LOT_LINES
 70
0
 62
3
  6
Continuous
370
-3
390
13
347
21
  0
LAYER
  5
33
330
1
100
AcDbSymbolTableRecord
100
AcDbLayerTableRecord
  2
EASEMENTS
 70
0
 62
5
  6
Continuous
370
-3
390
13
347
21
  0
LAYER
  5
34
330
1
100
AcDbSymbolTableRecord
100
AcDbLayerTableRecord
  2
LOT_LABELS
 70
0
 62
2
  6
Continuous
370
-3
390
13
347
21
  0
ENDTAB
  0
TABLE
  2
STYLE
  5
5
330
0
100
AcDbSymbolTable
 70
1
  0
STYLE
  5
29
330
5
100
AcDbSymbolTableRecord
100
AcDbTextStyleTableRecord
  2
Standard
 70
0
 40
0.0
 41
1.0
 50
0.0
 71
0
 42
2.5
  3
txt
  4

  0
ENDTAB
  0
TABLE
  2
VIEW
  5
7
330
0
100
AcDbSymbolTable
 70
0
  0
ENDTAB
  0
TABLE
  2
UCS
  5
6
330
0
100
AcDbSymbolTable
 70
0
  0
ENDTAB
  0
TABLE
  2
APPID
  5
3
330
0
100
AcDbSymbolTable
 70
3
  0
APPID
  5
2A
330
3
100
AcDbSymbolTableRecord
100
AcDbRegAppTableRecord
  2
ACAD
 70
0
  0
APPID
  5
CF
330
3
100
AcDbSymbolTableRecord
100
AcDbRegAppTableRecord
  2
HATCHBACKGROUNDCOLOR
 70
0
  0
APPID
  5
D0
330
3
100
AcDbSymbolTableRecord
100
AcDbRegAppTableRecord
  2
EZDXF
 70
0
  0
ENDTAB
  0
TABLE
  2
DIMSTYLE
  5
4
330
0
100
AcDbSymbolTable
 70
1
100
AcDbDimStyleTable
  0
DIMSTYLE
105
2B
330
4
100
AcDbSymbolTableRecord
100
AcDbDimStyleTableRecord
  2
Standard
 70
0
 40
1.0
 41
2.5
 42
0.625
 43
3.75
 44
1.25
 45
0.0
 46
0.0
 47
0.0
 48
0.0
 49
2.5
140
2.5
141
2.5
142
0.0
143
0.03937007874
144
1.0
145
0.0
146
1.0
147
0.625
148
0.0
 69
0
 70
0
 71
0
 72
0
 73
0
 74
0
 75
0
 76
0
 77
1
 78
8
 79
3
170
0
171
3
172
1
173
0
174
0
175
0
176
0
177
0
178
0
179
2
271
2
272
2
273
2
274
3
275
0
276
0
277
2
278
44
279
0
280
0
281
0
282
0
283
0
284
8
285
0
286
0
288
0
289
3
290
0
371
-2
372
-2
  0
ENDTAB
  0
TABLE
  2
BLOCK_RECORD
  5
9
330
0
100
AcDbSymbolTable
 70
2
  0
BLOCK_RECORD
  5
17
330
9
100
AcDbSymbolTableRecord
100
AcDbBlockTableRecord
  2
*Model_Space
340
1A
 70
0
280
1
281
0
  0
BLOCK_RECORD
  5
1B
330
9
100
AcDbSymbolTableRecord
100
AcDbBlockTableRecord
  2
*Paper_Space
340
1E
 70
0
280
1
281
0
  0
ENDTAB
  0
ENDSEC
  0
SECTION
  2
BLOCKS
  0
BLOCK
  5
18
330
17
100
AcDbEntity
  8
0
100
AcDbBlockBegin
  2
*Model_Space
 70
0
 10
0.0
 20
0.0
 30
0.0
  3
*Model_Space
  1

  0
ENDBLK
  5
19
330
17
100
AcDbEntity
  8
0
100
AcDbBlockEnd
  0
BLOCK
  5
1C
330
1B
100
AcDbEntity
  8
0
100
AcDbBlockBegin
  2
*Paper_Space
 70
0
 10
0.0
 20
0.0
 30
0.0
  3
*Paper_Space
  1

  0
ENDBLK
  5
1D
330
1B
100
AcDbEntity
  8
0
100
AcDbBlockEnd
  0
ENDSEC
  0
SECTION
  2
ENTITIES
  0
LWPOLYLINE
  5
35
330
17
100
AcDbEntity
  8
PARCEL
100
AcDbPolyline
 90
4
 70
1
 10
647.2834840410169
 20
662.1046784349573
 10
660.0983533688266
 20
-655.1864160281582
 10
-649.802640317705
 20
-662.8816369447463
 10
-656.3946156215179
 20
658.0716285049846
  0
LWPOLYLINE
  5
36
330
17
100
AcDbEntity
  8
OPT_ROAD
100
AcDbPolyline
 90
28
 70
1
 10
-322.2713733727655
 20
-622.8816369448111
 10
-322.2713733727655
 20
-15.388479254894492
 10
-616.3946156211432
 20
-15.388479254894492
 10
-616.3946156211432
 20
14.611520745105508
 10
-322.2713733727655
 20
14.611520745105508
 10
-322.2713733727655
 20
622.1046784350222
 10
-292.2713733727655
 20
622.1046784350222
 10
-292.2713733727655
 20
14.611520745105508
 10
-13.148131128303623
 20
14.611520745105508
 10
-13.148131128303623
 20
622.1046784350222
 10
16.85186887169638
 20
622.1046784350222
 10
16.85186887169638
 20
14.611520745105508
 10
295.97511112007413
 20
14.611520745105508
 10
295.97511112007413
 20
622.1046784350222
 10
325.97511112007413
 20
622.1046784350222
 10
325.97511112007413
 20
14.611520745105508
 10
620.098353368452
 20
14.611520745105508
 10
620.098353368452
 20
-15.388479254894492
 10
325.97511112007413
 20
-15.388479254894492
 10
325.97511112007413
 20
-622.8816369448111
 10
295.97511112007413
 20
-622.8816369448111
 10
295.97511112007413
 20
-15.388479254894492
 10
16.85186887169638
 20
-15.388479254894492
 10
16.85186887169638
 20
-622.8816369448111
 10
-13.148131128303623
 20
-622.8816369448111
 10
-13.148131128303623
 20
-15.388479254894492
 10
-292.2713733727655
 20
-15.388479254894492
 10
-292.2713733727655
 20
-622.8816369448111
  0
LWPOLYLINE
  5
37
330
17
100
AcDbEntity
  8
LOT_LINES
100
AcDbPolyline
 90
4
 70
1
 10
-322.2713733748639
 20
-622.8816369448111
 10
-395.27137337515614
 20
-622.8816369448111
 10
-395.27137337515614
 20
-519.9661106633187
 10
-322.2713733748639
 20
-519.9661106633187
  0
LWPOLYLINE
  5
38
330
17
100
AcDbEntity
  8
LOT_LINES
100
AcDbPolyline
 90
4
 70
1
 10
-322.2713733748639
 20
-519.9661106633187
 10
-395.27137337515614
 20
-519.9661106633187
 10
-395.27137337515614
 20
-417.0505843818262
 10
-322.2713733748639
 20
-417.0505843818262
  0
LWPOLYLINE
  5
39
330
17
100
AcDbEntity
  8
LOT_LINES
100
AcDbPolyline
 90
4
 70
1
 10
-322.2713733748639
 20
-417.0505843818262
 10
-395.27137337515614
 20
-417.0505843818262
 10
-395.27137337515614
 20
-314.1350581003337
 10
-322.2713733748639
 20
-314.1350581003337
  0
LWPOLYLINE
  5
3A
330
17
100
AcDbEntity
  8
LOT_LINES
100
AcDbPolyline
 90
4
 70
1
 10
-322.2713733748639
 20
-314.1350581003337
 10
-395.27137337515614
 20
-314.1350581003337
 10
-395.27137337515614
 20
-211.21953181884123
 10
-322.2713733748639
 20
-211.21953181884123
  0
LWPOLYLINE
  5
3B
330
17
100
AcDbEntity
  8
LOT_LINES
100
AcDbPolyline
 90
4
 70
1
 10
-322.2713733748639
 20
-211.21953181884123
 10
-395.27137337515614
 20
-211.21953181884123
 10
-395.27137337515614
 20
-108.30400553734876
 10
-322.2713733748639
 20
-108.30400553734876
  0
LWPOLYLINE
  5
3C
330
17
100
AcDbEntity
  8
LOT_LINES
100
AcDbPolyline
 90
4
 70
1
 10
-292.27137337458294
 20
-519.9661106633187
 10
-219.2713733742907
 20
-519.9661106633187
 10
-219.2713733742907
 20
-622.8816369448111
 10
-292.27137337458294
 20
-622.8816369448111
  0
LWPOLYLINE
  5
3D
330
17
100
AcDbEntity
  8
LOT_LINES
100
AcDbPolyline
 90
4
 70
1
 10
-292.27137337458294
 20
-417.0505843818262
 10
-219.2713733742907
 20
-417.0505843818262
 10
-219.2713733742907
 20
-519.9661106633187
 10
-292.27137337458294
 20
-519.9661106633187
  0
LWPOLYLINE
  5
3E
330
17
100
AcDbEntity
  8
LOT_LINES
100
AcDbPolyline
 90
4
 70
1
 10
-292.27137337458294
 20
-314.1350581003337
 10
-219.2713733742907
 20
-314.1350581003337
 10
-219.2713733742907
 20
-417.0505843818262
 10
-292.27137337458294
 20
-417.0505843818262
  0
LWPOLYLINE
  5
3F
330
17
100
AcDbEntity
  8
LOT_LINES
100
AcDbPolyline
 90
4
 70
1
 10
-292.27137337458294
 20
-211.21953181884123
 10
-219.2713733742907
 20
-211.21953181884123
 10
-219.2713733742907
 20
-314.1350581003337
 10
-292.27137337458294
 20
-314.1350581003337
  0
LWPOLYLINE
  5
40
330
17
100
AcDbEntity
  8
LOT_LINES
100
AcDbPolyline
 90
4
 70
1
 10
-292.27137337458294
 20
-108.30400553734876
 10
-219.2713733742907
 20
-108.30400553734876
 10
-219.2713733742907
 20
-211.21953181884123
 10
-292.27137337458294
 20
-211.21953181884123
  0
LWPOLYLINE
  5
41
330
17
100
AcDbEntity
  8
LOT_LINES
100
AcDbPolyline
 90
4
 70
1
 10
-322.2713733748639
 20
107.52704702755977
 10
-395.27137337515614
 20
107.52704702755977
 10
-395.27137337515614
 20
210.44257330905225
 10
-322.2713733748639
 20
210.44257330905225
  0
LWPOLYLINE
  5
42
330
17
100
AcDbEntity
  8
LOT_LINES
100
AcDbPolyline
 90
4
 70
1
 10
-322.2713733748639
 20
210.44257330905225
 10
-395.27137337515614
 20
210.44257330905225
 10
-395.27137337515614
 20
313.3580995905447
 10
-322.2713733748639
 20
313.3580995905447
  0
LWPOLYLINE
  5
43
330
17
100
AcDbEntity
  8
LOT_LINES
100
AcDbPolyline
 90
4
 70
1
 10
-322.2713733748639
 20
313.3580995905447
 10
-395.27137337515614
 20
313.3580995905447
 10
-395.27137337515614
 20
416.2736258720372
 10
-322.2713733748639
 20
416.2736258720372
  0
LWPOLYLINE
  5
44
330
17
100
AcDbEntity
  8
LOT_LINES
100
AcDbPolyline
 90
4
 70
1
 10
-322.2713733748639
 20
416.2736258720372
 10
-395.27137337515614
 20
416.2736258720372
 10
-395.27137337515614
 20
519.1891521535297
 10
-322.2713733748639
 20
519.1891521535297
  0
LWPOLYLINE
  5
45
330
17
100
AcDbEntity
  8
LOT_LINES
100
AcDbPolyline
 90
4
 70
1
 10
-322.2713733748639
 20
519.1891521535297
 10
-395.27137337515614
 20
519.1891521535297
 10
-395.27137337515614
 20
622.1046784350222
 10
-322.2713733748639
 20
622.1046784350222
  0
LWPOLYLINE
  5
46
330
17
100
AcDbEntity
  8
LOT_LINES
100
AcDbPolyline
 90
4
 70
1
 10
-292.27137337458294
 20
210.44257330905225
 10
-219.2713733742907
 20
210.44257330905225
 10
-219.2713733742907
 20
107.52704702755977
 10
-292.27137337458294
 20
107.52704702755977
  0
LWPOLYLINE
  5
47
330
17
100
AcDbEntity
  8
LOT_LINES
100
AcDbPolyline
 90
4
 70
1
 10
-292.27137337458294
 20
313.3580995905447
 10
-219.2713733742907
 20
313.3580995905447
 10
-219.2713733742907
 20
210.44257330905225
 10
-292.27137337458294
 20
210.44257330905225
  0
LWPOLYLINE
  5
48
330
17
100
AcDbEntity
  8
LOT_LINES
100
AcDbPolyline
 90
4
 70
1
 10
-292.27137337458294
 20
416.2736258720372
 10
-219.2713733742907
 20
416.2736258720372
 10
-219.2713733742907
 20
313.3580995905447
 10
-292.27137337458294
 20
313.3580995905447
  0
LWPOLYLINE
  5
49
330
17
100
AcDbEntity
  8
LOT_LINES
100
AcDbPolyline
 90
4
 70
1
 10
-292.27137337458294
 20
519.1891521535297
 10
-219.2713733742907
 20
519.1891521535297
 10
-219.2713733742907
 20
416.2736258720372
 10
-292.27137337458294
 20
416.2736258720372
  0
LWPOLYLINE
  5
4A
330
17
100
AcDbEntity
  8
LOT_LINES
100
AcDbPolyline
 90
4
 70
1
 10
-292.27137337458294
 20
622.1046784350222
 10
-219.2713733742907
 20
622.1046784350222
 10
-219.2713733742907
 20
519.1891521535297
 10
-292.27137337458294
 20
519.1891521535297
  0
LWPOLYLINE
  5
4B
330
17
100
AcDbEntity
  8
LOT_LINES
100
AcDbPolyline
 90
4
 70
1
 10
-13.148131126486163
 20
-622.8816369448111
 10
-86.14813112677838
 20
-622.8816369448111
 10
-86.14813112677838
 20
-519.9661106633187
 10
-13.148131126486163
 20
-519.9661106633187
  0
LWPOLYLINE
  5
4C
330
17
100
AcDbEntity
  8
LOT_LINES
100
AcDbPolyline
 90
4
 70
1
 10
-13.148131126486163
 20
-519.9661106633187
 10
-86.14813112677838
 20
-519.9661106633187
 10
-86.14813112677838
 20
-417.0505843818262
 10
-13.148131126486163
 20
-417.0505843818262
  0
LWPOLYLINE
  5
4D
330
17
100
AcDbEntity
  8
LOT_LINES
100
AcDbPolyline
 90
4
 70
1
 10
-13.148131126486163
 20
-417.0505843818262
 10
-86.14813112677838
 20
-417.0505843818262
 10
-86.14813112677838
 20
-314.1350581003337
 10
-13.148131126486163
 20
-314.1350581003337
  0
LWPOLYLINE
  5
4E
330
17
100
AcDbEntity
  8
LOT_LINES
100
AcDbPolyline
 90
4
 70
1
 10
-13.148131126486163
 20
-314.1350581003337
 10
-86.14813112677838
 20
-314.1350581003337
 10
-86.14813112677838
 20
-211.21953181884123
 10
-13.148131126486163
 20
-211.21953181884123
  0
LWPOLYLINE
  5
4F
330
17
100
AcDbEntity
  8
LOT_LINES
100
AcDbPolyline
 90
4
 70
1
 10
-13.148131126486163
 20
-211.21953181884123
 10
-86.14813112677838
 20
-211.21953181884123
 10
-86.14813112677838
 20
-108.30400553734876
 10
-13.148131126486163
 20
-108.30400553734876
  0
LWPOLYLINE
  5
50
330
17
100
AcDbEntity
  8
LOT_LINES
100
AcDbPolyline
 90
4
 70
1
 10
16.851868873794857
 20
-519.9661106633187
 10
89.85186887408707
 20
-519.9661106633187
 10
89.85186887408707
 20
-622.8816369448111
 10
16.851868873794857
 20
-622.8816369448111
  0
LWPOLYLINE
  5
51
330
17
100
AcDbEntity
  8
LOT_LINES
100
AcDbPolyline
 90
4
 70
1
 10
16.851868873794857
 20
-417.0505843818262
 10
89.85186887408707
 20
-417.0505843818262
 10
89.85186887408707
 20
-519.9661106633187
 10
16.851868873794857
 20
-519.9661106633187
  0
LWPOLYLINE
  5
52
330
17
100
AcDbEntity
  8
LOT_LINES
100
AcDbPolyline
 90
4
 70
1
 10
16.851868873794857
 20
-314.1350581003337
 10
89.85186887408707
 20
-314.1350581003337
 10
89.85186887408707
 20
-417.0505843818262
 10
16.851868873794857
 20
-417.0505843818262
  0
LWPOLYLINE
  5
53
330
17
100
AcDbEntity
  8
LOT_LINES
100
AcDbPolyline
 90
4
 70
1
 10
16.851868873794857
 20
-211.21953181884123
 10
89.85186887408707
 20
-211.21953181884123
 10
89.85186887408707
 20
-314.1350581003337
 10
16.851868873794857
 20
-314.1350581003337
  0
LWPOLYLINE
  5
54
330
17
100
AcDbEntity
  8
LOT_LINES
100
AcDbPolyline
 90
4
 70
1
 10
16.851868873794857
 20
-108.30400553734876
 10
89.85186887408707
 20
-108.30400553734876
 10
89.85186887408707
 20
-211.21953181884123
 10
16.851868873794857
 20
-211.21953181884123
  0
LWPOLYLINE
  5
55
330
17
100
AcDbEntity
  8
LOT_LINES
100
AcDbPolyline
 90
4
 70
1
 10
-13.148131126486163
 20
107.52704702755977
 10
-86.14813112677838
 20
107.52704702755977
 10
-86.14813112677838
 20
210.44257330905225
 10
-13.148131126486163
 20
210.44257330905225
  0
LWPOLYLINE
  5
56
330
17
100
AcDbEntity
  8
LOT_LINES
100
AcDbPolyline
 90
4
 70
1
 10
-13.148131126486163
 20
210.44257330905225
 10
-86.14813112677838
 20
210.44257330905225
 10
-86.14813112677838
 20
313.3580995905447
 10
-13.148131126486163
 20
313.3580995905447
  0
LWPOLYLINE
  5
57
330
17
100
AcDbEntity
  8
LOT_LINES
100
AcDbPolyline
 90
4
 70
1
 10
-13.148131126486163
 20
313.3580995905447
 10
-86.14813112677838
 20
313.3580995905447
 10
-86.14813112677838
 20
416.2736258720372
 10
-13.148131126486163
 20
416.2736258720372
  0
LWPOLYLINE
  5
58
330
17
100
AcDbEntity
  8
LOT_LINES
100
AcDbPolyline
 90
4
 70
1
 10
-13.148131126486163
 20
416.2736258720372
 10
-86.14813112677838
 20
416.2736258720372
 10
-86.14813112677838
 20
519.1891521535297
 10
-13.148131126486163
 20
519.1891521535297
  0
LWPOLYLINE
  5
59
330
17
100
AcDbEntity
  8
LOT_LINES
100
AcDbPolyline
 90
4
 70
1
 10
-13.148131126486163
 20
519.1891521535297
 10
-86.14813112677838
 20
519.1891521535297
 10
-86.14813112677838
 20
622.1046784350222
 10
-13.148131126486163
 20
622.1046784350222
  0
LWPOLYLINE
  5
5A
330
17
100
AcDbEntity
  8
LOT_LINES
100
AcDbPolyline
 90
4
 70
1
 10
16.851868873794857
 20
210.44257330905225
 10
89.85186887408707
 20
210.44257330905225
 10
89.85186887408707
 20
107.52704702755977
 10
16.851868873794857
 20
107.52704702755977
  0
LWPOLYLINE
  5
5B
330
17
100
AcDbEntity
  8
LOT_LINES
100
AcDbPolyline
 90
4
 70
1
 10
16.851868873794857
 20
313.3580995905447
 10
89.85186887408707
 20
313.3580995905447
 10
89.85186887408707
 20
210.44257330905225
 10
16.851868873794857
 20
210.44257330905225
  0
LWPOLYLINE
  5
5C
330
17
100
AcDbEntity
  8
LOT_LINES
100
AcDbPolyline
 90
4
 70
1
 10
16.851868873794857
 20
416.2736258720372
 10
89.85186887408707
 20
416.2736258720372
 10
89.85186887408707
 20
313.3580995905447
 10
16.851868873794857
 20
313.3580995905447
  0
LWPOLYLINE
  5
5D
330
17
100
AcDbEntity
  8
LOT_LINES
100
AcDbPolyline
 90
4
 70
1
 10
16.851868873794857
 20
519.1891521535297
 10
89.85186887408707
 20
519.1891521535297
 10
89.85186887408707
 20
416.2736258720372
 10
16.851868873794857
 20
416.2736258720372
  0
LWPOLYLINE
  5
5E
330
17
100
AcDbEntity
  8
LOT_LINES
100
AcDbPolyline
 90
4
 70
1
 10
16.851868873794857
 20
622.1046784350222
 10
89.85186887408707
 20
622.1046784350222
 10
89.85186887408707
 20
519.1891521535297
 10
16.851868873794857
 20
519.1891521535297
  0
LWPOLYLINE
  5
5F
330
17
100
AcDbEntity
  8
LOT_LINES
100
AcDbPolyline
 90
4
 70
1
 10
295.9751111218916
 20
-622.8816369448111
 10
222.97511112159938
 20
-622.8816369448111
 10
222.97511112159938
 20
-519.9661106633187
 10
295.9751111218916
 20
-519.9661106633187
  0
LWPOLYLINE
  5
60
330
17
100
AcDbEntity
  8
LOT_LINES
100
AcDbPolyline
 90
4
 70
1
 10
295.9751111218916
 20
-519.9661106633187
 10
222.97511112159938
 20
-519.9661106633187
 10
222.97511112159938
 20
-417.0505843818262
 10
295.9751111218916
 20
-417.0505843818262
  0
LWPOLYLINE
  5
61
330
17
100
AcDbEntity
  8
LOT_LINES
100
AcDbPolyline
 90
4
 70
1
 10
295.9751111218916
 20
-417.0505843818262
 10
222.97511112159938
 20
-417.0505843818262
 10
222.97511112159938
 20
-314.1350581003337
 10
295.9751111218916
 20
-314.1350581003337
  0
LWPOLYLINE
  5
62
330
17
100
AcDbEntity
  8
LOT_LINES
100
AcDbPolyline
 90
4
 70
1
 10
295.9751111218916
 20
-314.1350581003337
 10
222.97511112159938
 20
-314.1350581003337
 10
222.97511112159938
 20
-211.21953181884123
 10
295.9751111218916
 20
-211.21953181884123
  0
LWPOLYLINE
  5
63
330
17
100
AcDbEntity
  8
LOT_LINES
100
AcDbPolyline
 90
4
 70
1
 10
295.9751111218916
 20
-211.21953181884123
 10
222.97511112159938
 20
-211.21953181884123
 10
222.97511112159938
 20
-108.30400553734876
 10
295.9751111218916
 20
-108.30400553734876
  0
LWPOLYLINE
  5
64
330
17
100
AcDbEntity
  8
LOT_LINES
100
AcDbPolyline
 90
4
 70
1
 10
325.9751111221726
 20
-519.9661106633187
 10
398.97511112246485
 20
-519.9661106633187
 10
398.97511112246485
 20
-622.8816369448111
 10
325.9751111221726
 20
-622.8816369448111
  0
LWPOLYLINE
  5
65
330
17
100
AcDbEntity
  8
LOT_LINES
100
AcDbPolyline
 90
4
 70
1
 10
325.9751111221726
 20
-417.0505843818262
 10
398.97511112246485
 20
-417.0505843818262
 10
398.97511112246485
 20
-519.9661106633187
 10
325.9751111221726
 20
-519.9661106633187
  0
LWPOLYLINE
  5
66
330
17
100
AcDbEntity
  8
LOT_LINES
100
AcDbPolyline
 90
4
 70
1
 10
325.9751111221726
 20
-314.1350581003337
 10
398.97511112246485
 20
-314.1350581003337
 10
398.97511112246485
 20
-417.0505843818262
 10
325.9751111221726
 20
-417.0505843818262
  0
LWPOLYLINE
  5
67
330
17
100
AcDbEntity
  8
LOT_LINES
100
AcDbPolyline
 90
4
 70
1
 10
325.9751111221726
 20
-211.21953181884123
 10
398.97511112246485
 20
-211.21953181884123
 10
398.97511112246485
 20
-314.1350581003337
 10
325.9751111221726
 20
-314.1350581003337
  0
LWPOLYLINE
  5
68
330
17
100
AcDbEntity
  8
LOT_LINES
100
AcDbPolyline
 90
4
 70
1
 10
325.9751111221726
 20
-108.30400553734876
 10
398.97511112246485
 20
-108.30400553734876
 10
398.97511112246485
 20
-211.21953181884123
 10
325.9751111221726
 20
-211.21953181884123
  0
LWPOLYLINE
  5
69
330
17
100
AcDbEntity
  8
LOT_LINES
100
AcDbPolyline
 90
4
 70
1
 10
295.9751111218916
 20
107.52704702755977
 10
222.97511112159938
 20
107.52704702755977
 10
222.97511112159938
 20
210.44257330905225
 10
295.9751111218916
 20
210.44257330905225
  0
LWPOLYLINE
  5
6A
330
17
100
AcDbEntity
  8
LOT_LINES
100
AcDbPolyline
 90
4
 70
1
 10
295.9751111218916
 20
210.44257330905225
 10
222.97511112159938
 20
210.44257330905225
 10
222.97511112159938
 20
313.3580995905447
 10
295.9751111218916
 20
313.3580995905447
  0
LWPOLYLINE
  5
6B
330
17
100
AcDbEntity
  8
LOT_LINES
100
AcDbPolyline
 90
4
 70
1
 10
295.9751111218916
 20
313.3580995905447
 10
222.97511112159938
 20
313.3580995905447
 10
222.97511112159938
 20
416.2736258720372
 10
295.9751111218916
 20
416.2736258720372
  0
LWPOLYLINE
  5
6C
330
17
100
AcDbEntity
  8
LOT_LINES
100
AcDbPolyline
 90
4
 70
1
 10
295.9751111218916
 20
416.2736258720372
 10
222.97511112159938
 20
416.2736258720372
 10
222.97511112159938
 20
519.1891521535297
 10
295.9751111218916
 20
519.1891521535297
  0
LWPOLYLINE
  5
6D
330
17
100
AcDbEntity
  8
LOT_LINES
100
AcDbPolyline
 90
4
 70
1
 10
295.9751111218916
 20
519.1891521535297
 10
222.97511112159938
 20
519.1891521535297
 10
222.97511112159938
 20
622.1046784350222
 10
295.9751111218916
 20
622.1046784350222
  0
LWPOLYLINE
  5
6E
330
17
100
AcDbEntity
  8
LOT_LINES
100
AcDbPolyline
 90
4
 70
1
 10
325.9751111221726
 20
210.44257330905225
 10
398.97511112246485
 20
210.44257330905225
 10
398.97511112246485
 20
107.52704702755977
 10
325.9751111221726
 20
107.52704702755977
  0
LWPOLYLINE
  5
6F
330
17
100
AcDbEntity
  8
LOT_LINES
100
AcDbPolyline
 90
4
 70
1
 10
325.9751111221726
 20
313.3580995905447
 10
398.97511112246485
 20
313.3580995905447
 10
398.97511112246485
 20
210.44257330905225
 10
325.9751111221726
 20
210.44257330905225
  0
LWPOLYLINE
  5
70
330
17
100
AcDbEntity
  8
LOT_LINES
100
AcDbPolyline
 90
4
 70
1
 10
325.9751111221726
 20
416.2736258720372
 10
398.97511112246485
 20
416.2736258720372
 10
398.97511112246485
 20
313.3580995905447
 10
325.9751111221726
 20
313.3580995905447
  0
LWPOLYLINE
  5
71
330
17
100
AcDbEntity
  8
LOT_LINES
100
AcDbPolyline
 90
4
 70
1
 10
325.9751111221726
 20
519.1891521535297
 10
398.97511112246485
 20
519.1891521535297
 10
398.97511112246485
 20
416.2736258720372
 10
325.9751111221726
 20
416.2736258720372
  0
LWPOLYLINE
  5
72
330
17
100
AcDbEntity
  8
LOT_LINES
100
AcDbPolyline
 90
4
 70
1
 10
325.9751111221726
 20
622.1046784350222
 10
398.97511112246485
 20
622.1046784350222
 10
398.97511112246485
 20
519.1891521535297
 10
325.9751111221726
 20
519.1891521535297
  0
LWPOLYLINE
  5
73
330
17
100
AcDbEntity
  8
LOT_LINES
100
AcDbPolyline
 90
4
 70
1
 10
429.8686658315911
 20
14.611520745404505
 10
429.8686658315911
 20
87.61152074444567
 10
524.9835096000215
 20
87.61152074444567
 10
524.9835096000215
 20
14.611520745404505
  0
LWPOLYLINE
  5
74
330
17
100
AcDbEntity
  8
LOT_LINES
100
AcDbPolyline
 90
4
 70
1
 10
524.9835096000215
 20
14.611520745404505
 10
524.9835096000215
 20
87.61152074444567
 10
620.098353368452
 20
87.61152074444567
 10
620.098353368452
 20
14.611520745404505
  0
LWPOLYLINE
  5
75
330
17
100
AcDbEntity
  8
LOT_LINES
100
AcDbPolyline
 90
4
 70
1
 10
524.9835096000215
 20
-15.388479255193488
 10
524.9835096000215
 20
-88.38847925423465
 10
429.8686658315911
 20
-88.38847925423465
 10
429.8686658315911
 20
-15.388479255193488
  0
LWPOLYLINE
  5
76
330
17
100
AcDbEntity
  8
LOT_LINES
100
AcDbPolyline
 90
4
 70
1
 10
620.098353368452
 20
-15.388479255193488
 10
620.098353368452
 20
-88.38847925423465
 10
524.9835096000215
 20
-88.38847925423465
 10
524.9835096000215
 20
-15.388479255193488
  0
LWPOLYLINE
  5
77
330
17
100
AcDbEntity
  8
LOT_LINES
100
AcDbPolyline
 90
4
 70
1
 10
334.7538220631607
 20
14.611520745404505
 10
334.7538220631607
 20
87.61152074444567
 10
429.8686658315911
 20
87.61152074444567
 10
429.8686658315911
 20
14.611520745404505
  0
LWPOLYLINE
  5
78
330
17
100
AcDbEntity
  8
LOT_LINES
100
AcDbPolyline
 90
4
 70
1
 10
429.8686658315911
 20
-15.388479255193488
 10
429.8686658315911
 20
-88.38847925423465
 10
334.7538220631607
 20
-88.38847925423465
 10
334.7538220631607
 20
-15.388479255193488
  0
LWPOLYLINE
  5
79
330
17
100
AcDbEntity
  8
LOT_LINES
100
AcDbPolyline
 90
4
 70
1
 10
-322.2713733748639
 20
-15.388479255193488
 10
-322.2713733748639
 20
-108.30400553734876
 10
-395.27137337515614
 20
-108.30400553734876
 10
-395.27137337515614
 20
-15.388479255193488
  0
LWPOLYLINE
  5
7A
330
17
100
AcDbEntity
  8
LOT_LINES
100
AcDbPolyline
 90
4
 70
1
 10
-292.27137337458294
 20
-15.388479255193488
 10
-219.2713733742907
 20
-15.388479255193488
 10
-219.2713733742907
 20
-108.30400553734876
 10
-292.27137337458294
 20
-108.30400553734876
  0
LWPOLYLINE
  5
7B
330
17
100
AcDbEntity
  8
LOT_LINES
100
AcDbPolyline
 90
4
 70
1
 10
-322.2713733748639
 20
14.611520745404505
 10
-395.27137337515614
 20
14.611520745404505
 10
-395.27137337515614
 20
107.52704702755977
 10
-322.2713733748639
 20
107.52704702755977
  0
LWPOLYLINE
  5
7C
330
17
100
AcDbEntity
  8
LOT_LINES
100
AcDbPolyline
 90
4
 70
1
 10
-292.27137337458294
 20
14.611520745404505
 10
-292.27137337458294
 20
107.52704702755977
 10
-219.2713733742907
 20
107.52704702755977
 10
-219.2713733742907
 20
14.611520745404505
  0
LWPOLYLINE
  5
7D
330
17
100
AcDbEntity
  8
LOT_LINES
100
AcDbPolyline
 90
4
 70
1
 10
-13.148131126486163
 20
-15.388479255193488
 10
-13.148131126486163
 20
-108.30400553734876
 10
-86.14813112677838
 20
-108.30400553734876
 10
-86.14813112677838
 20
-15.388479255193488
  0
LWPOLYLINE
  5
7E
330
17
100
AcDbEntity
  8
LOT_LINES
100
AcDbPolyline
 90
4
 70
1
 10
16.851868873794857
 20
-15.388479255193488
 10
89.85186887408707
 20
-15.388479255193488
 10
89.85186887408707
 20
-108.30400553734876
 10
16.851868873794857
 20
-108.30400553734876
  0
LWPOLYLINE
  5
7F
330
17
100
AcDbEntity
  8
LOT_LINES
100
AcDbPolyline
 90
4
 70
1
 10
-13.148131126486163
 20
14.611520745404505
 10
-86.14813112677838
 20
14.611520745404505
 10
-86.14813112677838
 20
107.52704702755977
 10
-13.148131126486163
 20
107.52704702755977
  0
LWPOLYLINE
  5
80
330
17
100
AcDbEntity
  8
LOT_LINES
100
AcDbPolyline
 90
4
 70
1
 10
16.851868873794857
 20
14.611520745404505
 10
16.851868873794857
 20
107.52704702755977
 10
89.85186887408707
 20
107.52704702755977
 10
89.85186887408707
 20
14.611520745404505
  0
LWPOLYLINE
  5
81
330
17
100
AcDbEntity
  8
LOT_LINES
100
AcDbPolyline
 90
4
 70
1
 10
295.9751111218916
 20
-15.388479255193488
 10
295.9751111218916
 20
-108.30400553734876
 10
222.97511112159938
 20
-108.30400553734876
 10
222.97511112159938
 20
-15.388479255193488
  0
LWPOLYLINE
  5
82
330
17
100
AcDbEntity
  8
LOT_LINES
100
AcDbPolyline
 90
4
 70
1
 10
295.9751111218916
 20
14.611520745404505
 10
222.97511112159938
 20
14.611520745404505
 10
222.97511112159938
 20
107.52704702755977
 10
295.9751111218916
 20
107.52704702755977
  0
TEXT
  5
83
330
17
100
AcDbEntity
  8
LOT_LABELS
100
AcDbText
 10
-358.77137337501006
 20
-571.4238738040649
 30
0.0
 40
14.0
  1
LOT_1
 11
-358.77137337501006
 21
-571.4238738040649
 31
0.0
100
AcDbText
  0
TEXT
  5
84
330
17
100
AcDbEntity
  8
LOT_LABELS
100
AcDbText
 10
-358.77137337501006
 20
-468.5083475225724
 30
0.0
 40
14.0
  1
LOT_2
 11
-358.77137337501006
 21
-468.5083475225724
 31
0.0
100
AcDbText
  0
TEXT
  5
85
330
17
100
AcDbEntity
  8
LOT_LABELS
100
AcDbText
 10
-358.77137337501006
 20
-365.59282124107995
 30
0.0
 40
14.0
  1
LOT_3
 11
-358.77137337501006
 21
-365.59282124107995
 31
0.0
100
AcDbText
  0
TEXT
  5
86
330
17
100
AcDbEntity
  8
LOT_LABELS
100
AcDbText
 10
-358.77137337501006
 20
-262.67729495958747
 30
0.0
 40
14.0
  1
LOT_4
 11
-358.77137337501006
 21
-262.67729495958747
 31
0.0
100
AcDbText
  0
TEXT
  5
87
330
17
100
AcDbEntity
  8
LOT_LABELS
100
AcDbText
 10
-358.77137337501006
 20
-159.761768678095
 30
0.0
 40
14.0
  1
LOT_5
 11
-358.77137337501006
 21
-159.761768678095
 31
0.0
100
AcDbText
  0
TEXT
  5
88
330
17
100
AcDbEntity
  8
LOT_LABELS
100
AcDbText
 10
-255.77137337443682
 20
-571.4238738040649
 30
0.0
 40
14.0
  1
LOT_6
 11
-255.77137337443682
 21
-571.4238738040649
 31
0.0
100
AcDbText
  0
TEXT
  5
89
330
17
100
AcDbEntity
  8
LOT_LABELS
100
AcDbText
 10
-255.77137337443682
 20
-468.5083475225724
 30
0.0
 40
14.0
  1
LOT_7
 11
-255.77137337443682
 21
-468.5083475225724
 31
0.0
100
AcDbText
  0
TEXT
  5
8A
330
17
100
AcDbEntity
  8
LOT_LABELS
100
AcDbText
 10
-255.77137337443682
 20
-365.59282124107995
 30
0.0
 40
14.0
  1
LOT_8
 11
-255.77137337443682
 21
-365.59282124107995
 31
0.0
100
AcDbText
  0
TEXT
  5
8B
330
17
100
AcDbEntity
  8
LOT_LABELS
100
AcDbText
 10
-255.77137337443682
 20
-262.67729495958747
 30
0.0
 40
14.0
  1
LOT_9
 11
-255.77137337443682
 21
-262.67729495958747
 31
0.0
100
AcDbText
  0
TEXT
  5
8C
330
17
100
AcDbEntity
  8
LOT_LABELS
100
AcDbText
 10
-255.77137337443682
 20
-159.761768678095
 30
0.0
 40
14.0
  1
LOT_10
 11
-255.77137337443682
 21
-159.761768678095
 31
0.0
100
AcDbText
  0
TEXT
  5
8D
330
17
100
AcDbEntity
  8
LOT_LABELS
100
AcDbText
 10
-358.77137337501006
 20
158.984810168306
 30
0.0
 40
14.0
  1
LOT_11
 11
-358.77137337501006
 21
158.984810168306
 31
0.0
100
AcDbText
  0
TEXT
  5
8E
330
17
100
AcDbEntity
  8
LOT_LABELS
100
AcDbText
 10
-358.77137337501006
 20
261.9003364497985
 30
0.0
 40
14.0
  1
LOT_12
 11
-358.77137337501006
 21
261.9003364497985
 31
0.0
100
AcDbText
  0
TEXT
  5
8F
330
17
100
AcDbEntity
  8
LOT_LABELS
100
AcDbText
 10
-358.77137337501006
 20
364.81586273129096
 30
0.0
 40
14.0
  1
LOT_13
 11
-358.77137337501006
 21
364.81586273129096
 31
0.0
100
AcDbText
  0
TEXT
  5
90
330
17
100
AcDbEntity
  8
LOT_LABELS
100
AcDbText
 10
-358.77137337501006
 20
467.73138901278344
 30
0.0
 40
14.0
  1
LOT_14
 11
-358.77137337501006
 21
467.73138901278344
 31
0.0
100
AcDbText
  0
TEXT
  5
91
330
17
100
AcDbEntity
  8
LOT_LABELS
100
AcDbText
 10
-358.77137337501006
 20
570.6469152942759
 30
0.0
 40
14.0
  1
LOT_15
 11
-358.77137337501006
 21
570.6469152942759
 31
0.0
100
AcDbText
  0
TEXT
  5
92
330
17
100
AcDbEntity
  8
LOT_LABELS
100
AcDbText
 10
-255.77137337443682
 20
158.984810168306
 30
0.0
 40
14.0
  1
LOT_16
 11
-255.77137337443682
 21
158.984810168306
 31
0.0
100
AcDbText
  0
TEXT
  5
93
330
17
100
AcDbEntity
  8
LOT_LABELS
100
AcDbText
 10
-255.77137337443682
 20
261.9003364497985
 30
0.0
 40
14.0
  1
LOT_17
 11
-255.77137337443682
 21
261.9003364497985
 31
0.0
100
AcDbText
  0
TEXT
  5
94
330
17
100
AcDbEntity
  8
LOT_LABELS
100
AcDbText
 10
-255.77137337443682
 20
364.81586273129096
 30
0.0
 40
14.0
  1
LOT_18
 11
-255.77137337443682
 21
364.81586273129096
 31
0.0
100
AcDbText
  0
TEXT
  5
95
330
17
100
AcDbEntity
  8
LOT_LABELS
100
AcDbText
 10
-255.77137337443682
 20
467.73138901278344
 30
0.0
 40
14.0
  1
LOT_19
 11
-255.77137337443682
 21
467.73138901278344
 31
0.0
100
AcDbText
  0
TEXT
  5
96
330
17
100
AcDbEntity
  8
LOT_LABELS
100
AcDbText
 10
-255.77137337443682
 20
570.6469152942759
 30
0.0
 40
14.0
  1
LOT_20
 11
-255.77137337443682
 21
570.6469152942759
 31
0.0
100
AcDbText
  0
TEXT
  5
97
330
17
100
AcDbEntity
  8
LOT_LABELS
100
AcDbText
 10
-49.64813112663227
 20
-571.4238738040649
 30
0.0
 40
14.0
  1
LOT_21
 11
-49.64813112663227
 21
-571.4238738040649
 31
0.0
100
AcDbText
  0
TEXT
  5
98
330
17
100
AcDbEntity
  8
LOT_LABELS
100
AcDbText
 10
-49.64813112663227
 20
-468.5083475225724
 30
0.0
 40
14.0
  1
LOT_22
 11
-49.64813112663227
 21
-468.5083475225724
 31
0.0
100
AcDbText
  0
TEXT
  5
99
330
17
100
AcDbEntity
  8
LOT_LABELS
100
AcDbText
 10
-49.64813112663227
 20
-365.59282124107995
 30
0.0
 40
14.0
  1
LOT_23
 11
-49.64813112663227
 21
-365.59282124107995
 31
0.0
100
AcDbText
  0
TEXT
  5
9A
330
17
100
AcDbEntity
  8
LOT_LABELS
100
AcDbText
 10
-49.64813112663227
 20
-262.67729495958747
 30
0.0
 40
14.0
  1
LOT_24
 11
-49.64813112663227
 21
-262.67729495958747
 31
0.0
100
AcDbText
  0
TEXT
  5
9B
330
17
100
AcDbEntity
  8
LOT_LABELS
100
AcDbText
 10
-49.64813112663227
 20
-159.761768678095
 30
0.0
 40
14.0
  1
LOT_25
 11
-49.64813112663227
 21
-159.761768678095
 31
0.0
100
AcDbText
  0
TEXT
  5
9C
330
17
100
AcDbEntity
  8
LOT_LABELS
100
AcDbText
 10
53.351868873940965
 20
-571.4238738040649
 30
0.0
 40
14.0
  1
LOT_26
 11
53.351868873940965
 21
-571.4238738040649
 31
0.0
100
AcDbText
  0
TEXT
  5
9D
330
17
100
AcDbEntity
  8
LOT_LABELS
100
AcDbText
 10
53.351868873940965
 20
-468.5083475225724
 30
0.0
 40
14.0
  1
LOT_27
 11
53.351868873940965
 21
-468.5083475225724
 31
0.0
100
AcDbText
  0
TEXT
  5
9E
330
17
100
AcDbEntity
  8
LOT_LABELS
100
AcDbText
 10
53.351868873940965
 20
-365.59282124107995
 30
0.0
 40
14.0
  1
LOT_28
 11
53.351868873940965
 21
-365.59282124107995
 31
0.0
100
AcDbText
  0
TEXT
  5
9F
330
17
100
AcDbEntity
  8
LOT_LABELS
100
AcDbText
 10
53.351868873940965
 20
-262.67729495958747
 30
0.0
 40
14.0
  1
LOT_29
 11
53.351868873940965
 21
-262.67729495958747
 31
0.0
100
AcDbText
  0
TEXT
  5
A0
330
17
100
AcDbEntity
  8
LOT_LABELS
100
AcDbText
 10
53.351868873940965
 20
-159.761768678095
 30
0.0
 40
14.0
  1
LOT_30
 11
53.351868873940965
 21
-159.761768678095
 31
0.0
100
AcDbText
  0
TEXT
  5
A1
330
17
100
AcDbEntity
  8
LOT_LABELS
100
AcDbText
 10
-49.64813112663227
 20
158.984810168306
 30
0.0
 40
14.0
  1
LOT_31
 11
-49.64813112663227
 21
158.984810168306
 31
0.0
100
AcDbText
  0
TEXT
  5
A2
330
17
100
AcDbEntity
  8
LOT_LABELS
100
AcDbText
 10
-49.64813112663227
 20
261.9003364497985
 30
0.0
 40
14.0
  1
LOT_32
 11
-49.64813112663227
 21
261.9003364497985
 31
0.0
100
AcDbText
  0
TEXT
  5
A3
330
17
100
AcDbEntity
  8
LOT_LABELS
100
AcDbText
 10
-49.64813112663227
 20
364.81586273129096
 30
0.0
 40
14.0
  1
LOT_33
 11
-49.64813112663227
 21
364.81586273129096
 31
0.0
100
AcDbText
  0
TEXT
  5
A4
330
17
100
AcDbEntity
  8
LOT_LABELS
100
AcDbText
 10
-49.64813112663227
 20
467.73138901278344
 30
0.0
 40
14.0
  1
LOT_34
 11
-49.64813112663227
 21
467.73138901278344
 31
0.0
100
AcDbText
  0
TEXT
  5
A5
330
17
100
AcDbEntity
  8
LOT_LABELS
100
AcDbText
 10
-49.64813112663227
 20
570.6469152942759
 30
0.0
 40
14.0
  1
LOT_35
 11
-49.64813112663227
 21
570.6469152942759
 31
0.0
100
AcDbText
  0
TEXT
  5
A6
330
17
100
AcDbEntity
  8
LOT_LABELS
100
AcDbText
 10
53.351868873940965
 20
158.984810168306
 30
0.0
 40
14.0
  1
LOT_36
 11
53.351868873940965
 21
158.984810168306
 31
0.0
100
AcDbText
  0
TEXT
  5
A7
330
17
100
AcDbEntity
  8
LOT_LABELS
100
AcDbText
 10
53.351868873940965
 20
261.9003364497985
 30
0.0
 40
14.0
  1
LOT_37
 11
53.351868873940965
 21
261.9003364497985
 31
0.0
100
AcDbText
  0
TEXT
  5
A8
330
17
100
AcDbEntity
  8
LOT_LABELS
100
AcDbText
 10
53.351868873940965
 20
364.81586273129096
 30
0.0
 40
14.0
  1
LOT_38
 11
53.351868873940965
 21
364.81586273129096
 31
0.0
100
AcDbText
  0
TEXT
  5
A9
330
17
100
AcDbEntity
  8
LOT_LABELS
100
AcDbText
 10
53.351868873940965
 20
467.73138901278344
 30
0.0
 40
14.0
  1
LOT_39
 11
53.351868873940965
 21
467.73138901278344
 31
0.0
100
AcDbText
  0
TEXT
  5
AA
330
17
100
AcDbEntity
  8
LOT_LABELS
100
AcDbText
 10
53.351868873940965
 20
570.6469152942759
 30
0.0
 40
14.0
  1
LOT_40
 11
53.351868873940965
 21
570.6469152942759
 31
0.0
100
AcDbText
  0
TEXT
  5
AB
330
17
100
AcDbEntity
  8
LOT_LABELS
100
AcDbText
 10
259.4751111217455
 20
-571.4238738040649
 30
0.0
 40
14.0
  1
LOT_41
 11
259.4751111217455
 21
-571.4238738040649
 31
0.0
100
AcDbText
  0
TEXT
  5
AC
330
17
100
AcDbEntity
  8
LOT_LABELS
100
AcDbText
 10
259.4751111217455
 20
-468.5083475225724
 30
0.0
 40
14.0
  1
LOT_42
 11
259.4751111217455
 21
-468.5083475225724
 31
0.0
100
AcDbText
  0
TEXT
  5
AD
330
17
100
AcDbEntity
  8
LOT_LABELS
100
AcDbText
 10
259.4751111217455
 20
-365.59282124107995
 30
0.0
 40
14.0
  1
LOT_43
 11
259.4751111217455
 21
-365.59282124107995
 31
0.0
100
AcDbText
  0
TEXT
  5
AE
330
17
100
AcDbEntity
  8
LOT_LABELS
100
AcDbText
 10
259.4751111217455
 20
-262.67729495958747
 30
0.0
 40
14.0
  1
LOT_44
 11
259.4751111217455
 21
-262.67729495958747
 31
0.0
100
AcDbText
  0
TEXT
  5
AF
330
17
100
AcDbEntity
  8
LOT_LABELS
100
AcDbText
 10
259.4751111217455
 20
-159.761768678095
 30
0.0
 40
14.0
  1
LOT_45
 11
259.4751111217455
 21
-159.761768678095
 31
0.0
100
AcDbText
  0
TEXT
  5
B0
330
17
100
AcDbEntity
  8
LOT_LABELS
100
AcDbText
 10
362.4751111223187
 20
-571.4238738040649
 30
0.0
 40
14.0
  1
LOT_46
 11
362.4751111223187
 21
-571.4238738040649
 31
0.0
100
AcDbText
  0
TEXT
  5
B1
330
17
100
AcDbEntity
  8
LOT_LABELS
100
AcDbText
 10
362.4751111223187
 20
-468.5083475225724
 30
0.0
 40
14.0
  1
LOT_47
 11
362.4751111223187
 21
-468.5083475225724
 31
0.0
100
AcDbText
  0
TEXT
  5
B2
330
17
100
AcDbEntity
  8
LOT_LABELS
100
AcDbText
 10
362.4751111223187
 20
-365.59282124107995
 30
0.0
 40
14.0
  1
LOT_48
 11
362.4751111223187
 21
-365.59282124107995
 31
0.0
100
AcDbText
  0
TEXT
  5
B3
330
17
100
AcDbEntity
  8
LOT_LABELS
100
AcDbText
 10
362.4751111223187
 20
-262.67729495958747
 30
0.0
 40
14.0
  1
LOT_49
 11
362.4751111223187
 21
-262.67729495958747
 31
0.0
100
AcDbText
  0
TEXT
  5
B4
330
17
100
AcDbEntity
  8
LOT_LABELS
100
AcDbText
 10
362.4751111223187
 20
-159.761768678095
 30
0.0
 40
14.0
  1
LOT_50
 11
362.4751111223187
 21
-159.761768678095
 31
0.0
100
AcDbText
  0
TEXT
  5
B5
330
17
100
AcDbEntity
  8
LOT_LABELS
100
AcDbText
 10
259.4751111217455
 20
158.984810168306
 30
0.0
 40
14.0
  1
LOT_51
 11
259.4751111217455
 21
158.984810168306
 31
0.0
100
AcDbText
  0
TEXT
  5
B6
330
17
100
AcDbEntity
  8
LOT_LABELS
100
AcDbText
 10
259.4751111217455
 20
261.9003364497985
 30
0.0
 40
14.0
  1
LOT_52
 11
259.4751111217455
 21
261.9003364497985
 31
0.0
100
AcDbText
  0
TEXT
  5
B7
330
17
100
AcDbEntity
  8
LOT_LABELS
100
AcDbText
 10
259.4751111217455
 20
364.81586273129096
 30
0.0
 40
14.0
  1
LOT_53
 11
259.4751111217455
 21
364.81586273129096
 31
0.0
100
AcDbText
  0
TEXT
  5
B8
330
17
100
AcDbEntity
  8
LOT_LABELS
100
AcDbText
 10
259.4751111217455
 20
467.73138901278344
 30
0.0
 40
14.0
  1
LOT_54
 11
259.4751111217455
 21
467.73138901278344
 31
0.0
100
AcDbText
  0
TEXT
  5
B9
330
17
100
AcDbEntity
  8
LOT_LABELS
100
AcDbText
 10
259.4751111217455
 20
570.6469152942759
 30
0.0
 40
14.0
  1
LOT_55
 11
259.4751111217455
 21
570.6469152942759
 31
0.0
100
AcDbText
  0
TEXT
  5
BA
330
17
100
AcDbEntity
  8
LOT_LABELS
100
AcDbText
 10
362.4751111223187
 20
158.984810168306
 30
0.0
 40
14.0
  1
LOT_56
 11
362.4751111223187
 21
158.984810168306
 31
0.0
100
AcDbText
  0
TEXT
  5
BB
330
17
100
AcDbEntity
  8
LOT_LABELS
100
AcDbText
 10
362.4751111223187
 20
261.9003364497985
 30
0.0
 40
14.0
  1
LOT_57
 11
362.4751111223187
 21
261.9003364497985
 31
0.0
100
AcDbText
  0
TEXT
  5
BC
330
17
100
AcDbEntity
  8
LOT_LABELS
100
AcDbText
 10
362.4751111223187
 20
364.81586273129096
 30
0.0
 40
14.0
  1
LOT_58
 11
362.4751111223187
 21
364.81586273129096
 31
0.0
100
AcDbText
  0
TEXT
  5
BD
330
17
100
AcDbEntity
  8
LOT_LABELS
100
AcDbText
 10
362.4751111223187
 20
467.73138901278344
 30
0.0
 40
14.0
  1
LOT_59
 11
362.4751111223187
 21
467.73138901278344
 31
0.0
100
AcDbText
  0
TEXT
  5
BE
330
17
100
AcDbEntity
  8
LOT_LABELS
100
AcDbText
 10
362.4751111223187
 20
570.6469152942759
 30
0.0
 40
14.0
  1
LOT_60
 11
362.4751111223187
 21
570.6469152942759
 31
0.0
100
AcDbText
  0
TEXT
  5
BF
330
17
100
AcDbEntity
  8
LOT_LABELS
100
AcDbText
 10
477.4260877158063
 20
51.11152074492509
 30
0.0
 40
14.0
  1
LOT_61
 11
477.4260877158063
 21
51.11152074492509
 31
0.0
100
AcDbText
  0
TEXT
  5
C0
330
17
100
AcDbEntity
  8
LOT_LABELS
100
AcDbText
 10
572.5409314842368
 20
51.11152074492509
 30
0.0
 40
14.0
  1
LOT_62
 11
572.5409314842368
 21
51.11152074492509
 31
0.0
100
AcDbText
  0
TEXT
  5
C1
330
17
100
AcDbEntity
  8
LOT_LABELS
100
AcDbText
 10
477.4260877158063
 20
-51.88847925471407
 30
0.0
 40
14.0
  1
LOT_63
 11
477.4260877158063
 21
-51.88847925471407
 31
0.0
100
AcDbText
  0
TEXT
  5
C2
330
17
100
AcDbEntity
  8
LOT_LABELS
100
AcDbText
 10
572.5409314842368
 20
-51.88847925471407
 30
0.0
 40
14.0
  1
LOT_64
 11
572.5409314842368
 21
-51.88847925471407
 31
0.0
100
AcDbText
  0
TEXT
  5
C3
330
17
100
AcDbEntity
  8
LOT_LABELS
100
AcDbText
 10
382.31124394737594
 20
51.11152074492509
 30
0.0
 40
14.0
  1
LOT_65
 11
382.31124394737594
 21
51.11152074492509
 31
0.0
100
AcDbText
  0
TEXT
  5
C4
330
17
100
AcDbEntity
  8
LOT_LABELS
100
AcDbText
 10
382.31124394737594
 20
-51.88847925471407
 30
0.0
 40
14.0
  1
LOT_66
 11
382.31124394737594
 21
-51.88847925471407
 31
0.0
100
AcDbText
  0
TEXT
  5
C5
330
17
100
AcDbEntity
  8
LOT_LABELS
100
AcDbText
 10
-358.77137337501006
 20
-61.84624239627112
 30
0.0
 40
14.0
  1
LOT_67
 11
-358.77137337501006
 21
-61.84624239627112
 31
0.0
100
AcDbText
  0
TEXT
  5
C6
330
17
100
AcDbEntity
  8
LOT_LABELS
100
AcDbText
 10
-255.77137337443682
 20
-61.84624239627112
 30
0.0
 40
14.0
  1
LOT_68
 11
-255.77137337443682
 21
-61.84624239627112
 31
0.0
100
AcDbText
  0
TEXT
  5
C7
330
17
100
AcDbEntity
  8
LOT_LABELS
100
AcDbText
 10
-358.77137337501006
 20
61.06928388648214
 30
0.0
 40
14.0
  1
LOT_69
 11
-358.77137337501006
 21
61.06928388648214
 31
0.0
100
AcDbText
  0
TEXT
  5
C8
330
17
100
AcDbEntity
  8
LOT_LABELS
100
AcDbText
 10
-255.77137337443682
 20
61.06928388648214
 30
0.0
 40
14.0
  1
LOT_70
 11
-255.77137337443682
 21
61.06928388648214
 31
0.0
100
AcDbText
  0
TEXT
  5
C9
330
17
100
AcDbEntity
  8
LOT_LABELS
100
AcDbText
 10
-49.64813112663227
 20
-61.84624239627112
 30
0.0
 40
14.0
  1
LOT_71
 11
-49.64813112663227
 21
-61.84624239627112
 31
0.0
100
AcDbText
  0
TEXT
  5
CA
330
17
100
AcDbEntity
  8
LOT_LABELS
100
AcDbText
 10
53.351868873940965
 20
-61.84624239627112
 30
0.0
 40
14.0
  1
LOT_72
 11
53.351868873940965
 21
-61.84624239627112
 31
0.0
100
AcDbText
  0
TEXT
  5
CB
330
17
100
AcDbEntity
  8
LOT_LABELS
100
AcDbText
 10
-49.64813112663227
 20
61.06928388648214
 30
0.0
 40
14.0
  1
LOT_73
 11
-49.64813112663227
 21
61.06928388648214
 31
0.0
100
AcDbText
  0
TEXT
  5
CC
330
17
100
AcDbEntity
  8
LOT_LABELS
100
AcDbText
 10
53.351868873940965
 20
61.06928388648214
 30
0.0
 40
14.0
  1
LOT_74
 11
53.351868873940965
 21
61.06928388648214
 31
0.0
100
AcDbText
  0
TEXT
  5
CD
330
17
100
AcDbEntity
  8
LOT_LABELS
100
AcDbText
 10
259.4751111217455
 20
-61.84624239627112
 30
0.0
 40
14.0
  1
LOT_75
 11
259.4751111217455
 21
-61.84624239627112
 31
0.0
100
AcDbText
  0
TEXT
  5
CE
330
17
100
AcDbEntity
  8
LOT_LABELS
100
AcDbText
 10
259.4751111217455
 20
61.06928388648214
 30
0.0
 40
14.0
  1
LOT_76
 11
259.4751111217455
 21
61.06928388648214
 31
0.0
100
AcDbText
  0
ENDSEC
  0
SECTION
  2
OBJECTS
  0
DICTIONARY
  5
A
330
0
100
AcDbDictionary
281
1
  3
ACAD_COLOR
350
B
  3
ACAD_GROUP
350
C
  3
ACAD_LAYOUT
350
D
  3
ACAD_MATERIAL
350
E
  3
ACAD_MLEADERSTYLE
350
F
  3
ACAD_MLINESTYLE
350
10
  3
ACAD_PLOTSETTINGS
350
11
  3
ACAD_PLOTSTYLENAME
350
12
  3
ACAD_SCALELIST
350
14
  3
ACAD_TABLESTYLE
350
15
  3
ACAD_VISUALSTYLE
350
16
  3
EZDXF_META
350
2D
  0
DICTIONARY
  5
B
330
A
100
AcDbDictionary
281
1
  0
DICTIONARY
  5
C
330
A
100
AcDbDictionary
281
1
  0
DICTIONARY
  5
D
330
A
100
AcDbDictionary
281
1
  3
Model
350
1A
  3
Layout1
350
1E
  0
DICTIONARY
  5
E
330
A
100
AcDbDictionary
281
1
  3
ByBlock
350
1F
  3
ByLayer
350
20
  3
Global
350
21
  0
DICTIONARY
  5
F
330
A
100
AcDbDictionary
281
1
  3
Standard
350
2C
  0
DICTIONARY
  5
10
330
A
100
AcDbDictionary
281
1
  3
Standard
350
22
  0
DICTIONARY
  5
11
330
A
100
AcDbDictionary
281
1
  0
ACDBDICTIONARYWDFLT
  5
12
330
A
100
AcDbDictionary
281
1
  3
Normal
350
13
100
AcDbDictionaryWithDefault
340
13
  0
ACDBPLACEHOLDER
  5
13
330
12
  0
DICTIONARY
  5
14
330
A
100
AcDbDictionary
281
1
  0
DICTIONARY
  5
15
330
A
100
AcDbDictionary
281
1
  0
DICTIONARY
  5
16
330
A
100
AcDbDictionary
281
1
  0
LAYOUT
  5
1A
330
D
100
AcDbPlotSettings
  1

  4
A3
  6

 40
7.5
 41
20.0
 42
7.5
 43
20.0
 44
420.0
 45
297.0
 46
0.0
 47
0.0
 48
0.0
 49
0.0
140
0.0
141
0.0
142
1.0
143
1.0
 70
1024
 72
1
 73
0
 74
5
  7

 75
16
 76
0
 77
2
 78
300
147
1.0
148
0.0
149
0.0
100
AcDbLayout
  1
Model
 70
1
 71
0
 10
0.0
 20
0.0
 11
420.0
 21
297.0
 12
0.0
 22
0.0
 32
0.0
 14
1e+20
 24
1e+20
 34
1e+20
 15
-1e+20
 25
-1e+20
 35
-1e+20
146
0.0
 13
0.0
 23
0.0
 33
0.0
 16
1.0
 26
0.0
 36
0.0
 17
0.0
 27
1.0
 37
0.0
 76
1
330
17
  0
LAYOUT
  5
1E
330
D
100
AcDbPlotSettings
  1

  4
A3
  6

 40
7.5
 41
20.0
 42
7.5
 43
20.0
 44
420.0
 45
297.0
 46
0.0
 47
0.0
 48
0.0
 49
0.0
140
0.0
141
0.0
142
1.0
143
1.0
 70
0
 72
1
 73
0
 74
5
  7

 75
16
 76
0
 77
2
 78
300
147
1.0
148
0.0
149
0.0
100
AcDbLayout
  1
Layout1
 70
1
 71
1
 10
0.0
 20
0.0
 11
420.0
 21
297.0
 12
0.0
 22
0.0
 32
0.0
 14
1e+20
 24
1e+20
 34
1e+20
 15
-1e+20
 25
-1e+20
 35
-1e+20
146
0.0
 13
0.0
 23
0.0
 33
0.0
 16
1.0
 26
0.0
 36
0.0
 17
0.0
 27
1.0
 37
0.0
 76
1
330
1B
  0
MATERIAL
  5
1F
102
{ACAD_REACTORS
330
E
102
}
330
E
100
AcDbMaterial
  1
ByBlock
  2

 70
0
 40
1.0
 71
1
 41
1.0
 91
-1023410177
 42
1.0
 72
1
  3

 73
1
 74
1
 75
1
 44
0.5
 73
0
 45
1.0
 46
1.0
 77
1
  4

 78
1
 79
1
170
1
 48
1.0
171
1
  6

172
1
173
1
174
1
140
1.0
141
1.0
175
1
  7

176
1
177
1
178
1
143
1.0
179
1
  8

270
1
271
1
272
1
145
1.0
146
1.0
273
1
  9

274
1
275
1
276
1
 42
1.0
 72
1
  3

 73
1
 74
1
 75
1
 94
63
  0
MATERIAL
  5
20
102
{ACAD_REACTORS
330
E
102
}
330
E
100
AcDbMaterial
  1
ByLayer
  2

 70
0
 40
1.0
 71
1
 41
1.0
 91
-1023410177
 42
1.0
 72
1
  3

 73
1
 74
1
 75
1
 44
0.5
 73
0
 45
1.0
 46
1.0
 77
1
  4

 78
1
 79
1
170
1
 48
1.0
171
1
  6

172
1
173
1
174
1
140
1.0
141
1.0
175
1
  7

176
1
177
1
178
1
143
1.0
179
1
  8

270
1
271
1
272
1
145
1.0
146
1.0
273
1
  9

274
1
275
1
276
1
 42
1.0
 72
1
  3

 73
1
 74
1
 75
1
 94
63
  0
MATERIAL
  5
21
102
{ACAD_REACTORS
330
E
102
}
330
E
100
AcDbMaterial
  1
Global
  2

 70
0
 40
1.0
 71
1
 41
1.0
 91
-1023410177
 42
1.0
 72
1
  3

 73
1
 74
1
 75
1
 44
0.5
 73
0
 45
1.0
 46
1.0
 77
1
  4

 78
1
 79
1
170
1
 48
1.0
171
1
  6

172
1
173
1
174
1
140
1.0
141
1.0
175
1
  7

176
1
177
1
178
1
143
1.0
179
1
  8

270
1
271
1
272
1
145
1.0
146
1.0
273
1
  9

274
1
275
1
276
1
 42
1.0
 72
1
  3

 73
1
 74
1
 75
1
 94
63
  0
MLINESTYLE
  5
22
102
{ACAD_REACTORS
330
10
102
}
330
10
100
AcDbMlineStyle
  2
Standard
 70
0
  3

 62
256
 51
90.0
 52
90.0
 71
2
 49
0.5
 62
256
  6
BYLAYER
 49
-0.5
 62
256
  6
BYLAYER
  0
MLEADERSTYLE
  5
2C
102
{ACAD_REACTORS
330
F
102
}
330
F
100
AcDbMLeaderStyle
179
2
170
2
171
1
172
0
 90
2
 40
0.0
 41
0.0
173
1
 91
-1056964608
 92
-2
290
1
 42
2.0
291
1
 43
8.0
  3
Standard
 44
4.0
300

342
29
174
1
175
1
176
0
178
1
 93
-1056964608
 45
4.0
292
0
297
0
 46
4.0
 94
-1056964608
 47
1.0
 49
1.0
140
1.0
294
1
141
0.0
177
0
142
1.0
295
0
296
0
143
3.75
271
0
272
9
273
9
  0
DICTIONARY
  5
2D
330
A
100
AcDbDictionary
280
1
281
1
  3
CREATED_BY_EZDXF
350
2E
  3
WRITTEN_BY_EZDXF
350
D1
  0
DICTIONARYVAR
  5
2E
330
2D
100
DictionaryVariables
280
0
  1
1.4.2 @ 2026-03-24T21:16:47.949993+00:00
  0
DICTIONARYVAR
  5
D1
330
2D
100
DictionaryVariables
280
0
  1
1.4.2 @ 2026-03-24T21:16:47.952960+00:00
  0
ENDSEC
  0
EOF
