0
SECTION
2
HEADER
9
$ACADVER
1
AC1015
0
ENDSEC
0
SECTION
2
TABLES
0
TABLE
2
LAYER
70
6
0
LAYER
2
PARCEL
70
0
62
7
6
CONTINUOUS
0
LAYER
2
ROAD
70
0
62
1
6
CONTINUOUS
0
LAYER
2
OPT_ROAD
70
0
62
6
6
CONTINUOUS
0
LAYER
2
LOT_LINES
70
0
62
3
6
CONTINUOUS
0
LAYER
2
EASEMENTS
70
0
62
5
6
CONTINUOUS
0
LAYER
2
LOT_LABELS
70
0
62
2
6
CONTINUOUS
0
ENDTAB
0
ENDSEC
0
SECTION
2
ENTITIES
0
LWPOLYLINE
100
AcDbEntity
8
PARCEL
100
AcDbPolyline
90
4
70
1
10
-353.261151
20
-464.1
10
-353.261151
20
464.1
10
353.261151
20
464.1
10
353.261151
20
-464.1
0
LWPOLYLINE
100
AcDbEntity
8
OPT_ROAD
100
AcDbPolyline
90
4
70
1
10
-16
20
-424.1
10
-16
20
424.1
10
16
20
424.1
10
16
20
-424.1
0
LWPOLYLINE
100
AcDbEntity
8
OPT_ROAD
100
AcDbPolyline
90
4
70
1
10
-313.261151
20
-238.46
10
-5
20
-238.46
10
-5
20
-270.46
10
-313.261151
20
-270.46
0
LWPOLYLINE
100
AcDbEntity
8
OPT_ROAD
100
AcDbPolyline
90
4
70
1
10
-313.261151
20
-68.82
10
-5
20
-68.82
10
-5
20
-100.82
10
-313.261151
20
-100.82
0
LWPOLYLINE
100
AcDbEntity
8
OPT_ROAD
100
AcDbPolyline
90
4
70
1
10
-313.261151
20
100.82
10
-5
20
100.82
10
-5
20
68.82
10
-313.261151
20
68.82
0
LWPOLYLINE
100
AcDbEntity
8
OPT_ROAD
100
AcDbPolyline
90
4
70
1
10
-313.261151
20
270.46
10
-5
20
270.46
10
-5
20
238.46
10
-313.261151
20
238.46
0
LWPOLYLINE
100
AcDbEntity
8
OPT_ROAD
100
AcDbPolyline
90
4
70
1
10
5
20
-238.46
10
313.261151
20
-238.46
10
313.261151
20
-270.46
10
5
20
-270.46
0
LWPOLYLINE
100
AcDbEntity
8
OPT_ROAD
100
AcDbPolyline
90
4
70
1
10
5
20
-68.82
10
313.261151
20
-68.82
10
313.261151
20
-100.82
10
5
20
-100.82
0
LWPOLYLINE
100
AcDbEntity
8
OPT_ROAD
100
AcDbPolyline
90
4
70
1
10
5
20
100.82
10
313.261151
20
100.82
10
313.261151
20
68.82
10
5
20
68.82
0
LWPOLYLINE
100
AcDbEntity
8
OPT_ROAD
100
AcDbPolyline
90
4
70
1
10
5
20
270.46
10
313.261151
20
270.46
10
313.261151
20
238.46
10
5
20
238.46
0
LWPOLYLINE
100
AcDbEntity
8
LOT_LINES
100
AcDbPolyline
90
4
70
1
10
-107.753717
20
-100.82
10
-107.753717
20
-172.82
10
-210.507434
20
-172.82
10
-210.507434
20
-100.82
0
LWPOLYLINE
100
AcDbEntity
8
LOT_LINES
100
AcDbPolyline
90
4
70
1
10
-107.753717
20
-270.46
10
-107.753717
20
-342.46
10
-210.507434
20
-342.46
10
-210.507434
20
-270.46
0
LWPOLYLINE
100
AcDbEntity
8
LOT_LINES
100
AcDbPolyline
90
4
70
1
10
-107.753717
20
238.46
10
-107.753717
20
166.46
10
-210.507434
20
166.46
10
-210.507434
20
238.46
0
LWPOLYLINE
100
AcDbEntity
8
LOT_LINES
100
AcDbPolyline
90
4
70
1
10
-107.753717
20
68.82
10
-107.753717
20
-3.18
10
-210.507434
20
-3.18
10
-210.507434
20
68.82
0
LWPOLYLINE
100
AcDbEntity
8
LOT_LINES
100
AcDbPolyline
90
4
70
1
10
-16
20
-100.82
10
-16
20
-172.82
10
-107.753717
20
-172.82
10
-107.753717
20
-100.82
0
LWPOLYLINE
100
AcDbEntity
8
LOT_LINES
100
AcDbPolyline
90
4
70
1
10
-16
20
-238.46
10
-107.753717
20
-238.46
10
-107.753717
20
-166.46
10
-16
20
-166.46
0
LWPOLYLINE
100
AcDbEntity
8
LOT_LINES
100
AcDbPolyline
90
4
70
1
10
-16
20
-270.46
10
-16
20
-342.46
10
-107.753717
20
-342.46
10
-107.753717
20
-270.46
0
LWPOLYLINE
100
AcDbEntity
8
LOT_LINES
100
AcDbPolyline
90
4
70
1
10
-16
20
-424.1
10
-88
20
-424.1
10
-88
20
-329.855556
10
-16
20
-329.855556
0
LWPOLYLINE
100
AcDbEntity
8
LOT_LINES
100
AcDbPolyline
90
4
70
1
10
-16
20
-68.82
10
-107.753717
20
-68.82
10
-107.753717
20
3.18
10
-16
20
3.18
0
LWPOLYLINE
100
AcDbEntity
8
LOT_LINES
100
AcDbPolyline
90
4
70
1
10
-16
20
100.82
10
-107.753717
20
100.82
10
-107.753717
20
172.82
10
-16
20
172.82
0
LWPOLYLINE
100
AcDbEntity
8
LOT_LINES
100
AcDbPolyline
90
4
70
1
10
-16
20
238.46
10
-16
20
166.46
10
-107.753717
20
166.46
10
-107.753717
20
238.46
0
LWPOLYLINE
100
AcDbEntity
8
LOT_LINES
100
AcDbPolyline
90
4
70
1
10
-16
20
270.46
10
-107.753717
20
270.46
10
-107.753717
20
342.46
10
-16
20
342.46
0
LWPOLYLINE
100
AcDbEntity
8
LOT_LINES
100
AcDbPolyline
90
4
70
1
10
-16
20
68.82
10
-16
20
-3.18
10
-107.753717
20
-3.18
10
-107.753717
20
68.82
0
LWPOLYLINE
100
AcDbEntity
8
LOT_LINES
100
AcDbPolyline
90
4
70
1
10
-210.507434
20
-100.82
10
-210.507434
20
-172.82
10
-313.261151
20
-172.82
10
-313.261151
20
-100.82
0
LWPOLYLINE
100
AcDbEntity
8
LOT_LINES
100
AcDbPolyline
90
4
70
1
10
-210.507434
20
-238.46
10
-210.507434
20
-166.46
10
-107.753717
20
-166.46
10
-107.753717
20
-238.46
0
LWPOLYLINE
100
AcDbEntity
8
LOT_LINES
100
AcDbPolyline
90
4
70
1
10
-210.507434
20
-270.46
10
-210.507434
20
-342.46
10
-313.261151
20
-342.46
10
-313.261151
20
-270.46
0
LWPOLYLINE
100
AcDbEntity
8
LOT_LINES
100
AcDbPolyline
90
4
70
1
10
-210.507434
20
-68.82
10
-210.507434
20
3.18
10
-107.753717
20
3.18
10
-107.753717
20
-68.82
0
LWPOLYLINE
100
AcDbEntity
8
LOT_LINES
100
AcDbPolyline
90
4
70
1
10
-210.507434
20
100.82
10
-210.507434
20
172.82
10
-107.753717
20
172.82
10
-107.753717
20
100.82
0
LWPOLYLINE
100
AcDbEntity
8
LOT_LINES
100
AcDbPolyline
90
4
70
1
10
-210.507434
20
238.46
10
-210.507434
20
166.46
10
-313.261151
20
166.46
10
-313.261151
20
238.46
0
LWPOLYLINE
100
AcDbEntity
8
LOT_LINES
100
AcDbPolyline
90
4
70
1
10
-210.507434
20
270.46
10
-210.507434
20
342.46
10
-107.753717
20
342.46
10
-107.753717
20
270.46
0
LWPOLYLINE
100
AcDbEntity
8
LOT_LINES
100
AcDbPolyline
90
4
70
1
10
-210.507434
20
68.82
10
-210.507434
20
-3.18
10
-313.261151
20
-3.18
10
-313.261151
20
68.82
0
LWPOLYLINE
100
AcDbEntity
8
LOT_LINES
100
AcDbPolyline
90
4
70
1
10
-313.261151
20
-238.46
10
-313.261151
20
-166.46
10
-210.507434
20
-166.46
10
-210.507434
20
-238.46
0
LWPOLYLINE
100
AcDbEntity
8
LOT_LINES
100
AcDbPolyline
90
4
70
1
10
-313.261151
20
-68.82
10
-313.261151
20
3.18
10
-210.507434
20
3.18
10
-210.507434
20
-68.82
0
LWPOLYLINE
100
AcDbEntity
8
LOT_LINES
100
AcDbPolyline
90
4
70
1
10
-313.261151
20
100.82
10
-313.261151
20
172.82
10
-210.507434
20
172.82
10
-210.507434
20
100.82
0
LWPOLYLINE
100
AcDbEntity
8
LOT_LINES
100
AcDbPolyline
90
4
70
1
10
-313.261151
20
270.46
10
-313.261151
20
342.46
10
-210.507434
20
342.46
10
-210.507434
20
270.46
0
LWPOLYLINE
100
AcDbEntity
8
LOT_LINES
100
AcDbPolyline
90
4
70
1
10
107.753717
20
-238.46
10
107.753717
20
-166.46
10
210.507434
20
-166.46
10
210.507434
20
-238.46
0
LWPOLYLINE
100
AcDbEntity
8
LOT_LINES
100
AcDbPolyline
90
4
70
1
10
107.753717
20
-68.82
10
107.753717
20
3.18
10
210.507434
20
3.18
10
210.507434
20
-68.82
0
LWPOLYLINE
100
AcDbEntity
8
LOT_LINES
100
AcDbPolyline
90
4
70
1
10
107.753717
20
100.82
10
107.753717
20
172.82
10
210.507434
20
172.82
10
210.507434
20
100.82
0
LWPOLYLINE
100
AcDbEntity
8
LOT_LINES
100
AcDbPolyline
90
4
70
1
10
107.753717
20
270.46
10
107.753717
20
342.46
10
210.507434
20
342.46
10
210.507434
20
270.46
0
LWPOLYLINE
100
AcDbEntity
8
LOT_LINES
100
AcDbPolyline
90
4
70
1
10
16
20
-100.82
10
107.753717
20
-100.82
10
107.753717
20
-172.82
10
16
20
-172.82
0
LWPOLYLINE
100
AcDbEntity
8
LOT_LINES
100
AcDbPolyline
90
4
70
1
10
16
20
-238.46
10
16
20
-166.46
10
107.753717
20
-166.46
10
107.753717
20
-238.46
0
LWPOLYLINE
100
AcDbEntity
8
LOT_LINES
100
AcDbPolyline
90
4
70
1
10
16
20
-270.46
10
107.753717
20
-270.46
10
107.753717
20
-342.46
10
16
20
-342.46
0
LWPOLYLINE
100
AcDbEntity
8
LOT_LINES
100
AcDbPolyline
90
4
70
1
10
16
20
-68.82
10
16
20
3.18
10
107.753717
20
3.18
10
107.753717
20
-68.82
0
LWPOLYLINE
100
AcDbEntity
8
LOT_LINES
100
AcDbPolyline
90
4
70
1
10
16
20
100.82
10
16
20
172.82
10
107.753717
20
172.82
10
107.753717
20
100.82
0
LWPOLYLINE
100
AcDbEntity
8
LOT_LINES
100
AcDbPolyline
90
4
70
1
10
16
20
238.46
10
107.753717
20
238.46
10
107.753717
20
166.46
10
16
20
166.46
0
LWPOLYLINE
100
AcDbEntity
8
LOT_LINES
100
AcDbPolyline
90
4
70
1
10
16
20
270.46
10
16
20
342.46
10
107.753717
20
342.46
10
107.753717
20
270.46
0
LWPOLYLINE
100
AcDbEntity
8
LOT_LINES
100
AcDbPolyline
90
4
70
1
10
16
20
424.1
10
88
20
424.1
10
88
20
329.855556
10
16
20
329.855556
0
LWPOLYLINE
100
AcDbEntity
8
LOT_LINES
100
AcDbPolyline
90
4
70
1
10
16
20
68.82
10
107.753717
20
68.82
10
107.753717
20
-3.18
10
16
20
-3.18
0
LWPOLYLINE
100
AcDbEntity
8
LOT_LINES
100
AcDbPolyline
90
4
70
1
10
210.507434
20
-100.82
10
210.507434
20
-172.82
10
107.753717
20
-172.82
10
107.753717
20
-100.82
0
LWPOLYLINE
100
AcDbEntity
8
LOT_LINES
100
AcDbPolyline
90
4
70
1
10
210.507434
20
-238.46
10
210.507434
20
-166.46
10
313.261151
20
-166.46
10
313.261151
20
-238.46
0
LWPOLYLINE
100
AcDbEntity
8
LOT_LINES
100
AcDbPolyline
90
4
70
1
10
210.507434
20
-270.46
10
210.507434
20
-342.46
10
107.753717
20
-342.46
10
107.753717
20
-270.46
0
LWPOLYLINE
100
AcDbEntity
8
LOT_LINES
100
AcDbPolyline
90
4
70
1
10
210.507434
20
-68.82
10
210.507434
20
3.18
10
313.261151
20
3.18
10
313.261151
20
-68.82
0
LWPOLYLINE
100
AcDbEntity
8
LOT_LINES
100
AcDbPolyline
90
4
70
1
10
210.507434
20
100.82
10
210.507434
20
172.82
10
313.261151
20
172.82
10
313.261151
20
100.82
0
LWPOLYLINE
100
AcDbEntity
8
LOT_LINES
100
AcDbPolyline
90
4
70
1
10
210.507434
20
238.46
10
210.507434
20
166.46
10
107.753717
20
166.46
10
107.753717
20
238.46
0
LWPOLYLINE
100
AcDbEntity
8
LOT_LINES
100
AcDbPolyline
90
4
70
1
10
210.507434
20
270.46
10
210.507434
20
342.46
10
313.261151
20
342.46
10
313.261151
20
270.46
0
LWPOLYLINE
100
AcDbEntity
8
LOT_LINES
100
AcDbPolyline
90
4
70
1
10
210.507434
20
68.82
10
210.507434
20
-3.18
10
107.753717
20
-3.18
10
107.753717
20
68.82
0
LWPOLYLINE
100
AcDbEntity
8
LOT_LINES
100
AcDbPolyline
90
4
70
1
10
313.261151
20
-100.82
10
313.261151
20
-172.82
10
210.507434
20
-172.82
10
210.507434
20
-100.82
0
LWPOLYLINE
100
AcDbEntity
8
LOT_LINES
100
AcDbPolyline
90
4
70
1
10
313.261151
20
-270.46
10
313.261151
20
-342.46
10
210.507434
20
-342.46
10
210.507434
20
-270.46
0
LWPOLYLINE
100
AcDbEntity
8
LOT_LINES
100
AcDbPolyline
90
4
70
1
10
313.261151
20
238.46
10
313.261151
20
166.46
10
210.507434
20
166.46
10
210.507434
20
238.46
0
LWPOLYLINE
100
AcDbEntity
8
LOT_LINES
100
AcDbPolyline
90
4
70
1
10
313.261151
20
68.82
10
313.261151
20
-3.18
10
210.507434
20
-3.18
10
210.507434
20
68.82
0
TEXT
100
AcDbEntity
8
LOT_LABELS
100
AcDbText
10
-159.130576
20
-136.82
30
0
40
14
1
LOT_1
0
TEXT
100
AcDbEntity
8
LOT_LABELS
100
AcDbText
10
-159.130576
20
-306.46
30
0
40
14
1
LOT_2
0
TEXT
100
AcDbEntity
8
LOT_LABELS
100
AcDbText
10
-159.130576
20
202.46
30
0
40
14
1
LOT_3
0
TEXT
100
AcDbEntity
8
LOT_LABELS
100
AcDbText
10
-159.130576
20
32.82
30
0
40
14
1
LOT_4
0
TEXT
100
AcDbEntity
8
LOT_LABELS
100
AcDbText
10
-61.876859
20
-136.82
30
0
40
14
1
LOT_5
0
TEXT
100
AcDbEntity
8
LOT_LABELS
100
AcDbText
10
-61.876859
20
-202.46
30
0
40
14
1
LOT_6
0
TEXT
100
AcDbEntity
8
LOT_LABELS
100
AcDbText
10
-61.876859
20
-306.46
30
0
40
14
1
LOT_7
0
TEXT
100
AcDbEntity
8
LOT_LABELS
100
AcDbText
10
-52
20
-376.977778
30
0
40
14
1
LOT_8
0
TEXT
100
AcDbEntity
8
LOT_LABELS
100
AcDbText
10
-61.876859
20
-32.82
30
0
40
14
1
LOT_9
0
TEXT
100
AcDbEntity
8
LOT_LABELS
100
AcDbText
10
-61.876859
20
136.82
30
0
40
14
1
LOT_10
0
TEXT
100
AcDbEntity
8
LOT_LABELS
100
AcDbText
10
-61.876859
20
202.46
30
0
40
14
1
LOT_11
0
TEXT
100
AcDbEntity
8
LOT_LABELS
100
AcDbText
10
-61.876859
20
306.46
30
0
40
14
1
LOT_12
0
TEXT
100
AcDbEntity
8
LOT_LABELS
100
AcDbText
10
-61.876859
20
32.82
30
0
40
14
1
LOT_13
0
TEXT
100
AcDbEntity
8
LOT_LABELS
100
AcDbText
10
-261.884293
20
-136.82
30
0
40
14
1
LOT_14
0
TEXT
100
AcDbEntity
8
LOT_LABELS
100
AcDbText
10
-159.130576
20
-202.46
30
0
40
14
1
LOT_15
0
TEXT
100
AcDbEntity
8
LOT_LABELS
100
AcDbText
10
-261.884293
20
-306.46
30
0
40
14
1
LOT_16
0
TEXT
100
AcDbEntity
8
LOT_LABELS
100
AcDbText
10
-159.130576
20
-32.82
30
0
40
14
1
LOT_17
0
TEXT
100
AcDbEntity
8
LOT_LABELS
100
AcDbText
10
-159.130576
20
136.82
30
0
40
14
1
LOT_18
0
TEXT
100
AcDbEntity
8
LOT_LABELS
100
AcDbText
10
-261.884293
20
202.46
30
0
40
14
1
LOT_19
0
TEXT
100
AcDbEntity
8
LOT_LABELS
100
AcDbText
10
-159.130576
20
306.46
30
0
40
14
1
LOT_20
0
TEXT
100
AcDbEntity
8
LOT_LABELS
100
AcDbText
10
-261.884293
20
32.82
30
0
40
14
1
LOT_21
0
TEXT
100
AcDbEntity
8
LOT_LABELS
100
AcDbText
10
-261.884293
20
-202.46
30
0
40
14
1
LOT_22
0
TEXT
100
AcDbEntity
8
LOT_LABELS
100
AcDbText
10
-261.884293
20
-32.82
30
0
40
14
1
LOT_23
0
TEXT
100
AcDbEntity
8
LOT_LABELS
100
AcDbText
10
-261.884293
20
136.82
30
0
40
14
1
LOT_24
0
TEXT
100
AcDbEntity
8
LOT_LABELS
100
AcDbText
10
-261.884293
20
306.46
30
0
40
14
1
LOT_25
0
TEXT
100
AcDbEntity
8
LOT_LABELS
100
AcDbText
10
159.130576
20
-202.46
30
0
40
14
1
LOT_26
0
TEXT
100
AcDbEntity
8
LOT_LABELS
100
AcDbText
10
159.130576
20
-32.82
30
0
40
14
1
LOT_27
0
TEXT
100
AcDbEntity
8
LOT_LABELS
100
AcDbText
10
159.130576
20
136.82
30
0
40
14
1
LOT_28
0
TEXT
100
AcDbEntity
8
LOT_LABELS
100
AcDbText
10
159.130576
20
306.46
30
0
40
14
1
LOT_29
0
TEXT
100
AcDbEntity
8
LOT_LABELS
100
AcDbText
10
61.876859
20
-136.82
30
0
40
14
1
LOT_30
0
TEXT
100
AcDbEntity
8
LOT_LABELS
100
AcDbText
10
61.876859
20
-202.46
30
0
40
14
1
LOT_31
0
TEXT
100
AcDbEntity
8
LOT_LABELS
100
AcDbText
10
61.876859
20
-306.46
30
0
40
14
1
LOT_32
0
TEXT
100
AcDbEntity
8
LOT_LABELS
100
AcDbText
10
61.876859
20
-32.82
30
0
40
14
1
LOT_33
0
TEXT
100
AcDbEntity
8
LOT_LABELS
100
AcDbText
10
61.876859
20
136.82
30
0
40
14
1
LOT_34
0
TEXT
100
AcDbEntity
8
LOT_LABELS
100
AcDbText
10
61.876859
20
202.46
30
0
40
14
1
LOT_35
0
TEXT
100
AcDbEntity
8
LOT_LABELS
100
AcDbText
10
61.876859
20
306.46
30
0
40
14
1
LOT_36
0
TEXT
100
AcDbEntity
8
LOT_LABELS
100
AcDbText
10
52
20
376.977778
30
0
40
14
1
LOT_37
0
TEXT
100
AcDbEntity
8
LOT_LABELS
100
AcDbText
10
61.876859
20
32.82
30
0
40
14
1
LOT_38
0
TEXT
100
AcDbEntity
8
LOT_LABELS
100
AcDbText
10
159.130576
20
-136.82
30
0
40
14
1
LOT_39
0
TEXT
100
AcDbEntity
8
LOT_LABELS
100
AcDbText
10
261.884293
20
-202.46
30
0
40
14
1
LOT_40
0
TEXT
100
AcDbEntity
8
LOT_LABELS
100
AcDbText
10
159.130576
20
-306.46
30
0
40
14
1
LOT_41
0
TEXT
100
AcDbEntity
8
LOT_LABELS
100
AcDbText
10
261.884293
20
-32.82
30
0
40
14
1
LOT_42
0
TEXT
100
AcDbEntity
8
LOT_LABELS
100
AcDbText
10
261.884293
20
136.82
30
0
40
14
1
LOT_43
0
TEXT
100
AcDbEntity
8
LOT_LABELS
100
AcDbText
10
159.130576
20
202.46
30
0
40
14
1
LOT_44
0
TEXT
100
AcDbEntity
8
LOT_LABELS
100
AcDbText
10
261.884293
20
306.46
30
0
40
14
1
LOT_45
0
TEXT
100
AcDbEntity
8
LOT_LABELS
100
AcDbText
10
159.130576
20
32.82
30
0
40
14
1
LOT_46
0
TEXT
100
AcDbEntity
8
LOT_LABELS
100
AcDbText
10
261.884293
20
-136.82
30
0
40
14
1
LOT_47
0
TEXT
100
AcDbEntity
8
LOT_LABELS
100
AcDbText
10
261.884293
20
-306.46
30
0
40
14
1
LOT_48
0
TEXT
100
AcDbEntity
8
LOT_LABELS
100
AcDbText
10
261.884293
20
202.46
30
0
40
14
1
LOT_49
0
TEXT
100
AcDbEntity
8
LOT_LABELS
100
AcDbText
10
261.884293
20
32.82
30
0
40
14
1
LOT_50
0
ENDSEC
0
EOF
